<?xml version="1.0" encoding="utf-8"?>
<!-- Generator: Adobe Illustrator 22.0.0, SVG Export Plug-In . SVG Version: 6.00 Build 0)  -->
<svg version="1.1" id="Слой_1" xmlns="http://www.w3.org/2000/svg" xmlns:xlink="http://www.w3.org/1999/xlink" x="0px" y="0px"
	 viewBox="0 0 1142.1 2129" style="enable-background:new 0 0 1142.1 2129;" xml:space="preserve">
<style type="text/css">
	.st0{fill:#4B6D5A;}
	.st1{fill:#838383;}
	.st2{fill:#F9E4A3;}
	.st3{fill:#E9BA8C;}
	.st4{fill:#D5B18E;}
	.st5{fill:#FFFFFF;}
	.st6{fill:#D29E89;}
	.st7{fill:#BA9D75;}
	.st8{fill:#141414;}
	.st9{fill:#FFECAE;}
</style>
<g>
	<g>
		<circle id="XMLID_10_" class="st0" cx="567.9" cy="33.9" r="33.4"/>
	</g>
</g>
<g>
	<g>
		<path id="XMLID_5_" class="st1" d="M801.1,1234.6l184.3-114.7c0,0,40-91.7,52-94.7s73.7,125,73.7,125s7.7,12-22,12.3
			s-78-3.3-78-3.3s-62,47.6-98.2,66.2s-87.5,44.8-87.5,44.8s-9.3,8-18-3.7C798.8,1255,791.2,1240.8,801.1,1234.6z"/>
	</g>
</g>
<path class="st2" d="M1139.5,1127c-3.1-7.1-61.3-114-68-118.3s-14.3-1-27.3,8.7c-4.7,3.5-6.9,6.3-7.8,8.5c0.4-0.2,0.8-0.4,1.1-0.5
	c12-3,73.7,125,73.7,125s2.7,4.2-1.3,7.8c5.8-1.4,13.1-4,21.7-8.9C1146.8,1140.3,1141.8,1132.5,1139.5,1127z"/>
<path class="st3" d="M892,1110c0,0,36,43.5,46.5,62.5s13,38,8.5,45.3s-14.5,9-14.5,9s-3.5,10-9,14s-16.5,0-16.5,0s-3.5,8.8-9.5,11.3
	s-19.3-2.3-27.8-17s-44.5-74.3-41.3-82.5S892,1110,892,1110z"/>
<g>
	<g>
		<path id="XMLID_8_" class="st0" d="M233.5,1865c0,0-36,107-46,155s-20,93,46,103.5s125.5,4,125.5,4s43.5-3,62-33
			c7.9-12.8,10.1-26.8,10.1-38.8c0-15.5-6.1-30.4-16.6-41.7l-55.5-60l-13.5-79.5L233.5,1865z"/>
	</g>
</g>
<g>
	<g>
		<path id="XMLID_9_" class="st0" d="M593.5,1905.5c0,0-25,70-27.5,115s-7.5,73.5,9,87.5s86,12.5,86,12.5s109-1,138-20
			s36-38.5,36.5-64s-6.5-39-20.5-52.5s-62-22.3-81.5-48s-34.1-44.5-34.1-44.5h-99.9L593.5,1905.5z"/>
	</g>
</g>
<path class="st3" d="M54.8,1082c0,0-20.9,13-38,40s-18.7,42-14,48s16,6.3,16,6.3s1,10,7,15.3s29,3.3,29,3.3s0.3,7.9,8.7,8.3
	s28-10.6,38.7-21.3s33.3-49.3,33.3-49.3L54.8,1082z"/>
<path class="st4" d="M73.8,1152c-14.7-2.3-27.3,23-30,33.3c-1.1,4.2-1,7.5-0.5,10c6.2,0.1,11.5-0.3,11.5-0.3s0,0,6.7-13.3
	S88.5,1154.3,73.8,1152z"/>
<path class="st4" d="M48.5,1139.3c-7.3-6.3-21.7,6.7-29,21c-3.3,6.4-4.5,11.6-5,15.5c2.5,0.4,4.3,0.5,4.3,0.5s0.3,3.1,1.7,6.9
	c6.5-2.7,10.9-13.5,14-19.9C38.5,1155.3,55.8,1145.6,48.5,1139.3z"/>
<path class="st5" d="M364.1,1147.3c0,0-39.3,38.7-45.3,74s4,80,4,80s-44,46.7-46.7,93.3c-2.7,46.7,4.7,78,4.7,78s-43.3,33.3-52,83.3
	c-8.7,50,2.7,95.3,2.7,95.3s-52.7,54.7-70.7,124s-20,94-20,94s-0.7,14,16,19.3s102.7,26.7,137.3,30.7s107.3,13.3,114.7,13.3
	c7.3,0,29.3,3.3,36-31.3c6.7-34.7,10.7-84.7,4.7-112s-22-75.3-22-75.3s36-47.3,38-101.3s-10-97.3-10-97.3s32-44,35.3-82
	s-7.3-85.3-7.3-85.3s6.8-5.5,13.3-17s9.3-27.5,9.3-27.5s3,27.3,12.3,41.5c9.3,14.2,16,21.8,16,21.8s-24.3,49.8-25.8,84.3
	s14,89,14,89s-33.5,55-32.5,105s25,92.5,25,92.5s-28,59.5-29,114.5s-1.5,74.5,21,74.5c17.6,0,126-7,148-8.5s119-17,119-17
	s43.4,3.1,34-60c-9.5-63.5-35-117-35-117s-8-16-18.5-29.5s-24-26.5-24-26.5s12.5-32.5,12.5-72s-24-88.5-24-88.5s16.2-34.8,13-76.5
	c-4.5-59-46-107.5-46-107.5s10-40,6-71.5s-36-111-36-111l-38-43l-214,6.5L364.1,1147.3z"/>
<path class="st5" d="M112.8,1148.3l-79.3-65.7c0,0-16.3-13.3,7-52C63.8,992,143.8,888.3,196.8,841s91-95.7,166.3-105.7
	S357.9,872,357.9,872l-80.7,113.3l-104.7,132.4C172.5,1117.6,136.5,1171.3,112.8,1148.3z"/>
<path class="st5" d="M662.1,750c0,0,58-32.7,110.7,25.3s118,187.3,138,251.3s28.7,82,6,103.3s-78.7,55.3-78.7,55.3
	s-25.2,17.3-41.9-16s-74.1-144-74.1-144S620.1,800.6,662.1,750z"/>
<path class="st5" d="M385.5,408.3L682,394.9c0,0,13.2,5.7,9-38.5c-4.2-43.7-80.4-252.6-99.9-278.2c-18-23.7-36.1-27.6-60.1,4.9
	c-24,32.5-71,96.9-89,134.4S330.5,408.1,385.5,408.3z"/>
<path class="st3" d="M666.5,427v54.5c0,0,13.3,11.1,13.6,18S668,517.8,668,517.8s-2.8,48.3-32.5,66.9
	c-29.7,18.7-53.7,18.3-53.7,18.3l-8,110.3l-99.3-4.7l8-128.3c0,0-7.7-110.7,28.7-136C547.5,419,666.5,427,666.5,427z"/>
<path class="st6" d="M651.6,528.6c-5.6-2.3-12.9,3.4-7.6,12.6c3.7,6.5,11.8,9.4,16.2,10.6c1.8-4.6,3.2-9.1,4.2-13.3
	C660.9,535.1,655.3,530,651.6,528.6z"/>
<g>
	<g>
		<path id="XMLID_7_" class="st7" d="M384.5,391.5c0,0-24.5,44.5-26.5,110.5s31.5,108.5,75,110s78.5-16,103.5-45.5
			c25-29.5,28.5-77,28.5-77s40,7,74.5-17.5s54.5-60,47-89S384.5,391.5,384.5,391.5z"/>
	</g>
</g>
<ellipse class="st5" cx="627.2" cy="501.7" rx="15.5" ry="12.3"/>
<ellipse class="st8" cx="632.2" cy="501.7" rx="10.5" ry="11.6"/>
<g>
	<g>
		<path id="SVGID_1_" class="st2" d="M542.5,664.2c0,0,94-49.5,110.3-43.5s23.3,83.5,23.3,83.5s71.5-2.5,79.8,15
			s-30.5,85.3-30.5,85.3s58.8,32.8,59.5,49s-40.3,78.8-40.3,78.8s38.5,32.3,37.5,46.5s-48.3,44.5-48.3,44.5s5.8,67.3-1,79
			s-57.5,19-57.5,19s-20,61.5-36,65s-82.3-30.5-82.3-30.5s-36.5,46.3-54.5,47.5c-18,1.2-66-42.8-66-42.8s-85,36-106.8,24.8
			s-20.8-75.5-20.8-75.5s-47.5-8-54.8-19.5s30.3-96.5,30.3-96.5s-51.5-57.8-49-78s58.3-73.5,58.3-73.5s-20.3-90.3-11.3-105.5
			s97.8-39.3,97.8-39.3s10.8-55.5,36.5-65S542.5,664.2,542.5,664.2z"/>
	</g>
</g>
<ellipse class="st9" cx="386.2" cy="2000.5" rx="24.8" ry="26"/>
<ellipse class="st9" cx="769.1" cy="1974.5" rx="24.8" ry="26"/>
<path class="st4" d="M907,1240.7c0,0,2.6,1,6,1.5c-1.4-7.8-6-18.5-6-18.5s-11.5-22.5-18.3-18s0.8,17.3,4.5,25.5
	c2.5,5.4,7.7,11.3,10.9,14.7C906,1243.2,907,1240.7,907,1240.7z"/>
<path class="st4" d="M930.7,1231c1.2-2.4,1.8-4.3,1.8-4.3s4.2-0.7,8.4-3.3c-2.3-5.8-5.7-11.5-5.7-11.5s-15-31.3-21.9-23.8
	s1.2,17.8,7.2,27.5C920.5,1215.7,925.1,1224.9,930.7,1231z"/>
</svg>
