<?xml version="1.0" encoding="utf-8"?>
<svg version="1.1" id="Слой_1" xmlns="http://www.w3.org/2000/svg" xmlns:xlink="http://www.w3.org/1999/xlink" x="0px" y="0px"
	 viewBox="0 0 186.9 194.4" style="enable-background:new 0 0 186.9 194.4;" xml:space="preserve">
<g>
	<defs>
		<path id="SVGID_1_" d="M92.4,12c3.2-0.4,6.4-0.4,9.5-0.1c12,1.1,42.8,6.2,61.3,29.9c23.4,29.9,23.7,64.3,8,94.2
			s-40.5,48-76.4,46.2S20,162.7,11.1,122.5s1.9-70.1,26.4-89.6C56.7,17.7,82.1,13.2,92.4,12z"/>
	</defs>
	<use xlink:href="#SVGID_1_"  style="overflow:visible;fill:#DEB590;"/>
	<clipPath id="SVGID_2_">
		<use xlink:href="#SVGID_1_"  style="overflow:visible;"/>
	</clipPath>
</g>
<path d="M97.1,94.4l19.5-17.9c0,0,1.3-1,2.1,0c0.8,1-0.4,1.7-0.4,1.7L98.5,96l15.1,21.6c0,0,1,1.8,0,2.6c-1,0.8-2.4-1.1-2.4-1.1
	L96.3,98.2l-23.5,20c0,0-1.5,1.4-2.2,0.7c-0.8-0.7-0.3-1.9,0.6-2.6C72,115.7,95,96,95,96L79.2,73.7c0,0-0.6-1.4,0.3-2.2
	c1-0.8,2.4,0.8,2.4,0.8L97.1,94.4z"/>
</svg>
