<?xml version="1.0" encoding="utf-8"?>
<!-- Generator: Adobe Illustrator 22.0.0, SVG Export Plug-In . SVG Version: 6.00 Build 0)  -->
<svg version="1.1" id="Слой_1" xmlns="http://www.w3.org/2000/svg" xmlns:xlink="http://www.w3.org/1999/xlink" x="0px" y="0px"
	 viewBox="0 0 454.6 445.8" style="enable-background:new 0 0 454.6 445.8;" xml:space="preserve">
<style type="text/css">
	.st0{fill:#7EB6A6;}
</style>
<g>
	<g>
		<path id="XMLID_1_" class="st0" d="M220.3,1.1c8.3-1,16.6-1.1,24.9-0.3c31.3,2.9,111.7,16.2,160,78c61,78,62,168,21,246
			S320.4,450.1,226.8,445.4S31.1,394.7,8.1,289.7s5-183,69-234C127.1,15.9,193.4,4.3,220.3,1.1z"/>
	</g>
</g>
<path d="M174.6,194.4l16.5,90c0,0,1.3,3,5.3,4s109.3-120,109.3-120s-0.1-5.7-3.8-2.5c-13.1,11.6-102.3,112.7-102.3,112.7
	s-3.3,3-4-1.5c-0.7-4.1-11.4-69.6-13.4-82.2c-0.3-1.8-1.5-3.3-3.2-3.8C177.4,190.7,175.6,191.1,174.6,194.4z"/>
</svg>
