<svg xmlns="http://www.w3.org/2000/svg" height="38">
    <symbol id="helloMessage">
        <svg width="924" height="256" viewBox="0 0 924 256" fill="none" xmlns="http://www.w3.org/2000/svg">
            <path d="M16.584 1.80078C17.4375 1.80078 18.1549 3.45833 18.7363 6.77344C19.2806 8.40625 20.2949 13.2057 21.7793 21.1719L21.9277 21.2461H24.8965C25.7005 21.2461 26.2201 21.5924 26.4551 22.2852C26.4551 23.0273 26.4798 23.3984 26.5293 23.3984C26.4798 23.9056 26.4551 24.3014 26.4551 24.5859V26.7383C26.3561 27.4805 26.0345 27.8516 25.4902 27.8516C24.9212 27.8516 24.5749 27.5547 24.4512 26.9609C24.5501 24.7591 24.5996 23.5469 24.5996 23.3242L3.37305 22.8047V22.8789C3.24935 26.1445 3.05143 27.7773 2.7793 27.7773C2.5319 27.9258 2.28451 28 2.03711 28C1.62891 28 1.30729 27.7279 1.07227 27.1836C1.35677 23.1758 1.70312 21.1719 2.11133 21.1719C2.32161 20.974 3.0638 20.875 4.33789 20.875L8.49414 13.3047C11.9082 7.70117 14.2585 4.03971 15.5449 2.32031C15.9036 1.97396 16.25 1.80078 16.584 1.80078ZM6.56445 20.8008H7.1582L19.7012 21.1719C18.5632 15.321 17.4499 9.87826 16.3613 4.84375H16.2871C16.0273 5.10352 14.7904 7.0332 12.5762 10.6328C11.5 12.3522 9.49609 15.7415 6.56445 20.8008ZM45.2918 2.76562C47.6173 2.76562 49.6707 3.97786 51.452 6.40234C52.4415 7.82487 52.9363 9.68034 52.9363 11.9688V12.1172C52.9363 19.3659 50.3139 24.3385 45.0691 27.0352C43.9682 27.431 43.0529 27.6289 42.323 27.6289C38.5503 27.6289 36.0021 25.9714 34.6785 22.6562C33.9363 20.5039 33.5652 18.6484 33.5652 17.0898C33.5652 11.9564 35.396 7.77539 39.0574 4.54688C40.8882 3.35938 42.9663 2.76562 45.2918 2.76562ZM35.6434 17.5352C35.6434 19.6875 36.2371 21.7904 37.4246 23.8438C38.4266 25.2292 40.0594 25.9219 42.323 25.9219C44.6609 25.9219 46.937 24.1901 49.1512 20.7266C50.2892 18.6361 50.8582 15.9395 50.8582 12.6367V11.9688C50.8335 8.80208 49.4233 6.625 46.6277 5.4375C46.1701 5.28906 45.7495 5.21484 45.366 5.21484C42.2241 5.21484 39.9233 6.30339 38.4637 8.48047C36.5835 11.0658 35.6434 14.084 35.6434 17.5352ZM69.7506 2.61719C70.3443 2.76562 70.6412 3.0625 70.6412 3.50781V3.73047C70.6412 4.3737 69.9732 4.69531 68.6373 4.69531C66.8066 4.79427 64.6295 4.84375 62.1061 4.84375H61.9576V13.4531H62.0318C63.0214 13.3542 63.5657 13.3047 63.6646 13.3047C65.5572 13.3047 67.3632 13.8984 69.0826 15.0859C70.6165 16.4095 71.3834 18.1165 71.3834 20.207C71.3834 23.5716 69.3053 26.0456 65.149 27.6289C64.1347 27.8763 63.1451 28 62.1803 28H61.6607C60.5227 28 59.9537 27.5052 59.9537 26.5156V11.5977C59.9537 9.95247 59.9785 7.50326 60.0279 4.25C60.0279 3.52018 60.498 3.09961 61.4381 2.98828C66.0025 2.74089 68.7734 2.61719 69.7506 2.61719ZM61.9576 15.3828V21.9141C61.9576 22.8418 61.9824 24.2025 62.0318 25.9961C64.8645 25.9961 67.1158 24.8333 68.7857 22.5078C69.1321 21.5677 69.3053 20.8255 69.3053 20.2812V19.8359C69.3053 17.263 67.3756 15.7292 63.5162 15.2344C63.1822 15.2344 62.6627 15.2839 61.9576 15.3828ZM82.4643 2.61719C84.4929 2.61719 86.3731 3.26042 88.1049 4.54688C89.5398 6.10547 90.2572 7.91146 90.2572 9.96484C90.2572 11.6842 89.4656 13.416 87.8822 15.1602C85.9402 16.8919 83.5652 17.7578 80.7572 17.7578V17.832L80.683 18.2031C80.5469 24.388 80.3985 27.4805 80.2377 27.4805C80.0645 27.7402 79.7676 27.9134 79.3471 28C78.9018 28 78.5554 27.6784 78.308 27.0352C78.7533 14.1211 79.1244 6.27865 79.4213 3.50781C79.6934 2.91406 80.584 2.61719 82.0932 2.61719H82.4643ZM81.2025 4.54688L81.1283 5.28906C81.1283 7.36719 81.0294 10.806 80.8314 15.6055C80.782 15.6055 80.7572 15.6302 80.7572 15.6797H80.9057C83.6023 15.6797 85.7051 14.7148 87.2143 12.7852C87.8575 11.7585 88.1791 10.7936 88.1791 9.89062C88.1791 7.91146 87.4122 6.45182 85.8783 5.51172C84.3816 4.86849 83.2436 4.54688 82.4643 4.54688H81.2025ZM108.816 2.76562C111.141 2.76562 113.195 3.97786 114.976 6.40234C115.965 7.82487 116.46 9.68034 116.46 11.9688V12.1172C116.46 19.3659 113.838 24.3385 108.593 27.0352C107.492 27.431 106.577 27.6289 105.847 27.6289C102.074 27.6289 99.5259 25.9714 98.2023 22.6562C97.4602 20.5039 97.0891 18.6484 97.0891 17.0898C97.0891 11.9564 98.9198 7.77539 102.581 4.54688C104.412 3.35938 106.49 2.76562 108.816 2.76562ZM99.1672 17.5352C99.1672 19.6875 99.7609 21.7904 100.948 23.8438C101.95 25.2292 103.583 25.9219 105.847 25.9219C108.185 25.9219 110.461 24.1901 112.675 20.7266C113.813 18.6361 114.382 15.9395 114.382 12.6367V11.9688C114.357 8.80208 112.947 6.625 110.152 5.4375C109.694 5.28906 109.273 5.21484 108.89 5.21484C105.748 5.21484 103.447 6.30339 101.988 8.48047C100.107 11.0658 99.1672 14.084 99.1672 17.5352ZM145.209 4.10156C152.037 4.22526 155.451 4.39844 155.451 4.62109C155.723 4.91797 155.872 5.3138 155.896 5.80859C155.847 20.207 155.649 27.4062 155.303 27.4062C155.006 27.6042 154.734 27.7031 154.486 27.7031H154.412C153.979 27.7031 153.657 27.4062 153.447 26.8125C153.571 26.8125 153.694 21.0482 153.818 9.51953C153.855 9.43294 153.929 8.41862 154.041 6.47656C150.082 6.22917 145.877 6.10547 141.424 6.10547C141.424 6.15495 141.399 6.17969 141.349 6.17969C141.3 7.09505 141.275 7.76302 141.275 8.18359V9.29688C141.275 9.49479 141.25 9.69271 141.201 9.89062C141.25 10.0762 141.275 10.2741 141.275 10.4844C141.275 11.5111 141.077 17.0775 140.681 27.1836C140.446 27.7279 140.125 28 139.717 28C139.024 27.8639 138.678 27.5423 138.678 27.0352V25.8477C139.11 11.944 139.457 4.99219 139.717 4.99219C139.717 4.39844 141.547 4.10156 145.209 4.10156ZM174.752 2.76562C177.077 2.76562 179.13 3.97786 180.912 6.40234C181.901 7.82487 182.396 9.68034 182.396 11.9688V12.1172C182.396 19.3659 179.774 24.3385 174.529 27.0352C173.428 27.431 172.513 27.6289 171.783 27.6289C168.01 27.6289 165.462 25.9714 164.138 22.6562C163.396 20.5039 163.025 18.6484 163.025 17.0898C163.025 11.9564 164.856 7.77539 168.517 4.54688C170.348 3.35938 172.426 2.76562 174.752 2.76562ZM165.103 17.5352C165.103 19.6875 165.697 21.7904 166.884 23.8438C167.886 25.2292 169.519 25.9219 171.783 25.9219C174.121 25.9219 176.397 24.1901 178.611 20.7266C179.749 18.6361 180.318 15.9395 180.318 12.6367V11.9688C180.293 8.80208 178.883 6.625 176.087 5.4375C175.63 5.28906 175.209 5.21484 174.826 5.21484C171.684 5.21484 169.383 6.30339 167.923 8.48047C166.043 11.0658 165.103 14.084 165.103 17.5352ZM199.786 0.910156H200.231C200.639 0.910156 200.911 1.20703 201.047 1.80078L200.75 11.0039C206.008 5.80859 208.704 3.21094 208.84 3.21094H209.286C209.879 3.33464 210.176 3.63151 210.176 4.10156V4.17578C210.176 4.67057 209.434 5.53646 207.95 6.77344L200.528 14.1953C202.593 16.6569 205.166 19.5762 208.246 22.9531C209.385 24.153 209.954 24.8457 209.954 25.0312V25.3281C209.83 25.9219 209.533 26.2188 209.063 26.2188H208.84C208.407 26.2188 207.492 25.3529 206.094 23.6211L200.305 17.1641C200.058 21.4564 199.81 24.8704 199.563 27.4062C199.303 27.8021 198.957 28 198.524 28C197.881 27.8145 197.559 27.5176 197.559 27.1094C197.806 24.1406 198.029 20.6276 198.227 16.5703L188.801 26.1445C188.616 26.3177 188.368 26.4414 188.059 26.5156C187.465 26.3796 187.168 26.0827 187.168 25.625V25.4766C187.168 25.1426 187.911 24.2767 189.395 22.8789C190.929 21.0729 193.675 18.1536 197.633 14.1211C194.85 10.8926 192.673 8.31966 191.102 6.40234C189.618 4.84375 188.875 3.90365 188.875 3.58203V3.35938C188.875 2.9388 189.172 2.66667 189.766 2.54297C190.112 2.54297 191.028 3.38411 192.512 5.06641L198.598 11.9688C198.796 7.5651 199.019 4.02734 199.266 1.35547C199.551 1.05859 199.724 0.910156 199.786 0.910156ZM226.452 3.50781H226.601C227.281 3.50781 227.726 3.75521 227.937 4.25C229.075 7.1569 231.029 13.8118 233.8 24.2148C234.047 24.9818 234.295 25.9219 234.542 27.0352C234.369 27.6784 233.998 28 233.429 28C232.761 28 232.291 27.1094 232.019 25.3281C231.277 22.9408 230.633 20.541 230.089 18.1289C229.594 18.1784 229.223 18.2031 228.976 18.2031H223.484C223.063 18.2031 222.395 18.1784 221.48 18.1289C219.674 22.681 218.313 25.8229 217.398 27.5547C217.212 27.7031 216.989 27.7773 216.73 27.7773C216.185 27.6908 215.913 27.4186 215.913 26.9609V26.6641C219.018 18.2773 222.284 10.707 225.71 3.95312C225.933 3.65625 226.18 3.50781 226.452 3.50781ZM226.601 6.625C223.966 12.3275 222.531 15.5436 222.296 16.2734C224.226 16.1745 226.477 16.125 229.05 16.125H229.495C228.258 11.8203 227.318 8.67839 226.675 6.69922C226.675 6.64974 226.65 6.625 226.601 6.625ZM254.437 2.54297H254.511C255.315 2.54297 255.909 3.50781 256.292 5.4375C257.282 8.31966 259.582 15.321 263.194 26.4414V26.5898C263.095 27.2826 262.749 27.6289 262.155 27.6289C261.512 27.6289 260.968 26.6641 260.522 24.7344C257.801 16.7806 255.772 10.4473 254.437 5.73438H254.362C251.084 11.7708 247.448 18.9206 243.452 27.1836C243.192 27.7279 242.846 28 242.413 28C241.819 27.7897 241.522 27.4681 241.522 27.0352C243.749 21.7285 247.015 15.0736 251.319 7.07031C252.606 4.63346 253.521 3.14909 254.065 2.61719L254.437 2.54297ZM281.716 2.76562C284.041 2.76562 286.095 3.97786 287.876 6.40234C288.865 7.82487 289.36 9.68034 289.36 11.9688V12.1172C289.36 19.3659 286.738 24.3385 281.493 27.0352C280.392 27.431 279.477 27.6289 278.747 27.6289C274.974 27.6289 272.426 25.9714 271.102 22.6562C270.36 20.5039 269.989 18.6484 269.989 17.0898C269.989 11.9564 271.82 7.77539 275.481 4.54688C277.312 3.35938 279.39 2.76562 281.716 2.76562ZM272.067 17.5352C272.067 19.6875 272.661 21.7904 273.848 23.8438C274.85 25.2292 276.483 25.9219 278.747 25.9219C281.085 25.9219 283.361 24.1901 285.575 20.7266C286.713 18.6361 287.282 15.9395 287.282 12.6367V11.9688C287.257 8.80208 285.847 6.625 283.052 5.4375C282.594 5.28906 282.173 5.21484 281.79 5.21484C278.648 5.21484 276.347 6.30339 274.888 8.48047C273.007 11.0658 272.067 14.084 272.067 17.5352ZM301.48 1.94922C303.026 1.94922 304.436 2.49349 305.711 3.58203C306.651 4.59635 307.121 5.80859 307.121 7.21875V7.29297C307.121 9.42057 305.809 11.276 303.187 12.8594C302.705 13.1562 302.383 13.3047 302.222 13.3047V13.3789C303.274 13.4902 304.61 14.2819 306.23 15.7539C307.517 17.2383 308.16 18.7969 308.16 20.4297C308.16 22.3965 307.046 24.3014 304.82 26.1445C302.841 27.3815 300.738 28 298.511 28H297.621C296.965 28 296.495 27.6536 296.211 26.9609C296.26 26.0085 296.285 25.39 296.285 25.1055C296.458 10.1628 296.879 2.69141 297.546 2.69141C298.078 2.19661 299.39 1.94922 301.48 1.94922ZM298.882 4.25C298.882 4.72005 298.808 7.26823 298.66 11.8945L298.586 12.2656C300.453 11.8327 301.765 11.3874 302.519 10.9297C304.201 9.74219 305.043 8.52995 305.043 7.29297V6.99609C305.043 5.23958 303.806 4.22526 301.332 3.95312H299.328C299.031 3.95312 298.882 4.05208 298.882 4.25ZM298.511 14.6406V14.7148C298.412 18.3763 298.363 21.5182 298.363 24.1406V25.7734L298.289 25.9219C298.338 25.9219 298.363 25.9466 298.363 25.9961L298.511 25.9219H298.734C301.554 25.9219 303.756 24.8333 305.339 22.6562C305.834 21.877 306.082 21.11 306.082 20.3555C306.082 18.1289 304.573 16.4219 301.554 15.2344C300.627 14.9375 299.612 14.7396 298.511 14.6406ZM325.735 3.50781H325.883C326.564 3.50781 327.009 3.75521 327.219 4.25C328.357 7.1569 330.312 13.8118 333.082 24.2148C333.33 24.9818 333.577 25.9219 333.825 27.0352C333.651 27.6784 333.28 28 332.711 28C332.043 28 331.573 27.1094 331.301 25.3281C330.559 22.9408 329.916 20.541 329.371 18.1289C328.877 18.1784 328.506 18.2031 328.258 18.2031H322.766C322.345 18.2031 321.677 18.1784 320.762 18.1289C318.956 22.681 317.595 25.8229 316.68 27.5547C316.495 27.7031 316.272 27.7773 316.012 27.7773C315.468 27.6908 315.196 27.4186 315.196 26.9609V26.6641C318.301 18.2773 321.566 10.707 324.993 3.95312C325.215 3.65625 325.463 3.50781 325.735 3.50781ZM325.883 6.625C323.248 12.3275 321.814 15.5436 321.579 16.2734C323.508 16.1745 325.76 16.125 328.332 16.125H328.778C327.541 11.8203 326.601 8.67839 325.957 6.69922C325.957 6.64974 325.933 6.625 325.883 6.625ZM342.623 3.0625H349.822C354.078 3.0625 356.205 3.21094 356.205 3.50781C356.354 3.81706 356.428 4.08919 356.428 4.32422C356.304 4.91797 355.958 5.21484 355.389 5.21484C352.309 5.16536 350.552 5.14062 350.119 5.14062C349.773 20.0833 349.526 27.5547 349.377 27.5547C349.154 27.8516 348.907 28 348.635 28H348.338C347.955 28 347.658 27.7031 347.447 27.1094C347.757 14.9993 348.029 7.67643 348.264 5.14062H348.19C344.021 4.99219 341.819 4.91797 341.584 4.91797C341.139 4.76953 340.916 4.44792 340.916 3.95312C340.916 3.35938 341.485 3.0625 342.623 3.0625ZM364.373 2.39453H364.521C365.115 2.39453 365.412 2.88932 365.412 3.87891V6.47656C365.412 7.83724 365.387 9.74219 365.338 12.1914H366.451C369.284 12.1914 371.659 13.5521 373.576 16.2734C374.12 17.4238 374.393 18.5866 374.393 19.7617C374.393 22.1738 373.205 24.3014 370.83 26.1445C368.962 27.3815 367.255 28 365.709 28H364.67C363.532 28 362.963 27.6536 362.963 26.9609C363.111 22.112 363.235 15.9518 363.334 8.48047C363.47 4.88086 363.594 2.97591 363.705 2.76562C363.903 2.51823 364.126 2.39453 364.373 2.39453ZM365.264 14.0469V14.1211C365.214 20.3184 365.14 24.2767 365.041 25.9961C367.416 25.9961 369.42 25.0312 371.053 23.1016C371.894 22.112 372.314 20.9492 372.314 19.6133C372.314 17.0651 370.706 15.2839 367.49 14.2695C367.07 14.1211 366.327 14.0469 365.264 14.0469ZM401.861 1.94922C403.407 1.94922 404.817 2.49349 406.091 3.58203C407.032 4.59635 407.502 5.80859 407.502 7.21875V7.29297C407.502 9.42057 406.19 11.276 403.568 12.8594C403.086 13.1562 402.764 13.3047 402.603 13.3047V13.3789C403.655 13.4902 404.99 14.2819 406.611 15.7539C407.897 17.2383 408.541 18.7969 408.541 20.4297C408.541 22.3965 407.427 24.3014 405.201 26.1445C403.222 27.3815 401.119 28 398.892 28H398.002C397.346 28 396.876 27.6536 396.591 26.9609C396.641 26.0085 396.666 25.39 396.666 25.1055C396.839 10.1628 397.259 2.69141 397.927 2.69141C398.459 2.19661 399.77 1.94922 401.861 1.94922ZM399.263 4.25C399.263 4.72005 399.189 7.26823 399.041 11.8945L398.966 12.2656C400.834 11.8327 402.145 11.3874 402.9 10.9297C404.582 9.74219 405.423 8.52995 405.423 7.29297V6.99609C405.423 5.23958 404.186 4.22526 401.712 3.95312H399.709C399.412 3.95312 399.263 4.05208 399.263 4.25ZM398.892 14.6406V14.7148C398.793 18.3763 398.744 21.5182 398.744 24.1406V25.7734L398.67 25.9219C398.719 25.9219 398.744 25.9466 398.744 25.9961L398.892 25.9219H399.115C401.935 25.9219 404.137 24.8333 405.72 22.6562C406.215 21.877 406.462 21.11 406.462 20.3555C406.462 18.1289 404.953 16.4219 401.935 15.2344C401.007 14.9375 399.993 14.7396 398.892 14.6406ZM441.167 3.28516H441.464C442.144 3.28516 442.664 4.29948 443.023 6.32812C443.27 7.11979 444.161 10.8555 445.695 17.5352H445.769C448.206 13.2305 450.704 9.17318 453.265 5.36328C453.797 4.3737 454.341 3.87891 454.898 3.87891C455.838 3.87891 456.308 5.36328 456.308 8.33203C457.05 16.1621 457.52 22.3717 457.718 26.9609C457.718 27.5547 457.347 27.901 456.605 28C455.912 28 455.566 27.2331 455.566 25.6992C455.417 22.6315 455.021 17.0156 454.378 8.85156V7.66406L454.23 7.58984L448.366 16.9414C447.995 17.8444 447.105 19.0814 445.695 20.6523C445.534 20.7513 445.385 20.8008 445.249 20.8008C444.519 20.8008 444 19.8359 443.691 17.9062C442.899 14.7025 442.033 10.9668 441.093 6.69922H440.945C439.312 10.3978 436.813 16.4342 433.448 24.8086C432.731 26.6888 432.236 27.6289 431.964 27.6289L431.593 27.7031C431.098 27.7031 430.801 27.3815 430.702 26.7383C432.583 21.3945 435.032 15.2096 438.05 8.18359C439.398 4.91797 440.437 3.28516 441.167 3.28516ZM466.35 2.91406C466.993 2.96354 467.314 3.28516 467.314 3.87891V8.18359L466.572 23.4727C471.829 16.0879 476.777 9.60612 481.416 4.02734C481.824 3.73047 482.121 3.58203 482.307 3.58203C483.197 3.58203 483.643 3.92839 483.643 4.62109C483.643 9.29688 483.346 16.694 482.752 26.8125C482.455 27.1589 482.183 27.332 481.936 27.332H481.713C481.292 27.332 480.971 27.0352 480.748 26.4414C481.094 18.5866 481.416 12.1048 481.713 6.99609C479.152 9.98958 476.307 13.6263 473.178 17.9062L466.053 27.4805C465.743 27.5794 465.496 27.6289 465.311 27.6289C464.717 27.4557 464.42 27.1589 464.42 26.7383L465.459 4.02734C465.546 3.28516 465.842 2.91406 466.35 2.91406ZM494.816 2.61719C496.845 2.61719 498.725 3.26042 500.457 4.54688C501.892 6.10547 502.609 7.91146 502.609 9.96484C502.609 11.6842 501.817 13.416 500.234 15.1602C498.292 16.8919 495.917 17.7578 493.109 17.7578V17.832L493.035 18.2031C492.899 24.388 492.75 27.4805 492.59 27.4805C492.416 27.7402 492.12 27.9134 491.699 28C491.254 28 490.907 27.6784 490.66 27.0352C491.105 14.1211 491.476 6.27865 491.773 3.50781C492.045 2.91406 492.936 2.61719 494.445 2.61719H494.816ZM493.554 4.54688L493.48 5.28906C493.48 7.36719 493.381 10.806 493.183 15.6055C493.134 15.6055 493.109 15.6302 493.109 15.6797H493.258C495.954 15.6797 498.057 14.7148 499.566 12.7852C500.209 11.7585 500.531 10.7936 500.531 9.89062C500.531 7.91146 499.764 6.45182 498.23 5.51172C496.734 4.86849 495.595 4.54688 494.816 4.54688H493.554ZM526.422 2.91406C527.065 2.96354 527.387 3.28516 527.387 3.87891V8.18359L526.645 23.4727C531.902 16.0879 536.85 9.60612 541.489 4.02734C541.897 3.73047 542.194 3.58203 542.379 3.58203C543.27 3.58203 543.715 3.92839 543.715 4.62109C543.715 9.29688 543.418 16.694 542.825 26.8125C542.528 27.1589 542.256 27.332 542.008 27.332H541.786C541.365 27.332 541.043 27.0352 540.821 26.4414C541.167 18.5866 541.489 12.1048 541.786 6.99609C539.225 9.98958 536.38 13.6263 533.25 17.9062L526.125 27.4805C525.816 27.5794 525.569 27.6289 525.383 27.6289C524.789 27.4557 524.493 27.1589 524.493 26.7383L525.532 4.02734C525.618 3.28516 525.915 2.91406 526.422 2.91406ZM563.888 2.54297H564.63C565.001 2.54297 565.273 2.8151 565.446 3.35938C565.446 4.10156 564.655 4.47266 563.071 4.47266C560.87 4.72005 558.618 5.63542 556.318 7.21875C553.943 9.6556 552.755 12.5501 552.755 15.9023V16.4961C552.755 20.071 554.116 22.7676 556.837 24.5859C558.556 25.4766 560.684 25.9219 563.22 25.9219C563.764 26.1322 564.036 26.5033 564.036 27.0352C563.876 27.6784 563.554 28 563.071 28C557.307 28 553.497 25.8229 551.642 21.4688C550.999 19.7988 550.677 18.0423 550.677 16.1992V16.0508C550.677 12.1543 551.988 8.81445 554.611 6.03125C557.456 3.70573 560.548 2.54297 563.888 2.54297ZM579.181 4.10156C586.009 4.22526 589.423 4.39844 589.423 4.62109C589.695 4.91797 589.843 5.3138 589.868 5.80859C589.819 20.207 589.621 27.4062 589.274 27.4062C588.978 27.6042 588.705 27.7031 588.458 27.7031H588.384C587.951 27.7031 587.629 27.4062 587.419 26.8125C587.543 26.8125 587.666 21.0482 587.79 9.51953C587.827 9.43294 587.901 8.41862 588.013 6.47656C584.054 6.22917 579.849 6.10547 575.396 6.10547C575.396 6.15495 575.371 6.17969 575.321 6.17969C575.272 7.09505 575.247 7.76302 575.247 8.18359V9.29688C575.247 9.49479 575.222 9.69271 575.173 9.89062C575.222 10.0762 575.247 10.2741 575.247 10.4844C575.247 11.5111 575.049 17.0775 574.653 27.1836C574.418 27.7279 574.097 28 573.688 28C572.996 27.8639 572.649 27.5423 572.649 27.0352V25.8477C573.082 11.944 573.429 4.99219 573.688 4.99219C573.688 4.39844 575.519 4.10156 579.181 4.10156ZM608.723 2.76562C611.049 2.76562 613.102 3.97786 614.884 6.40234C615.873 7.82487 616.368 9.68034 616.368 11.9688V12.1172C616.368 19.3659 613.746 24.3385 608.501 27.0352C607.4 27.431 606.485 27.6289 605.755 27.6289C601.982 27.6289 599.434 25.9714 598.11 22.6562C597.368 20.5039 596.997 18.6484 596.997 17.0898C596.997 11.9564 598.828 7.77539 602.489 4.54688C604.32 3.35938 606.398 2.76562 608.723 2.76562ZM599.075 17.5352C599.075 19.6875 599.669 21.7904 600.856 23.8438C601.858 25.2292 603.491 25.9219 605.755 25.9219C608.093 25.9219 610.369 24.1901 612.583 20.7266C613.721 18.6361 614.29 15.9395 614.29 12.6367V11.9688C614.265 8.80208 612.855 6.625 610.059 5.4375C609.602 5.28906 609.181 5.21484 608.798 5.21484C605.656 5.21484 603.355 6.30339 601.895 8.48047C600.015 11.0658 599.075 14.084 599.075 17.5352ZM636.003 2.54297H636.077C636.881 2.54297 637.475 3.50781 637.858 5.4375C638.848 8.31966 641.148 15.321 644.76 26.4414V26.5898C644.661 27.2826 644.315 27.6289 643.721 27.6289C643.078 27.6289 642.534 26.6641 642.089 24.7344C639.367 16.7806 637.339 10.4473 636.003 5.73438H635.928C632.65 11.7708 629.014 18.9206 625.018 27.1836C624.758 27.7279 624.412 28 623.979 28C623.385 27.7897 623.089 27.4681 623.089 27.0352C625.315 21.7285 628.581 15.0736 632.885 7.07031C634.172 4.63346 635.087 3.14909 635.631 2.61719L636.003 2.54297ZM665.007 1.57812H665.156C665.613 1.57812 665.885 1.875 665.972 2.46875C665.774 13.0573 665.675 20.3307 665.675 24.2891V26.9609C665.675 27.6536 665.304 28 664.562 28C663.968 27.8763 663.671 27.5299 663.671 26.9609V20.875C663.671 19.5143 663.696 17.6094 663.745 15.1602H658.402C657.412 15.1602 655.928 15.1354 653.949 15.0859V15.7539C653.949 17.127 653.899 20.7389 653.8 26.5898C653.714 27.3815 653.392 27.7773 652.835 27.7773C652.143 27.7773 651.796 27.4062 651.796 26.6641C651.945 18.5124 652.019 12.4512 652.019 8.48047C652.118 4.27474 652.266 2.17188 652.464 2.17188L652.835 1.94922H653.281C653.676 1.94922 653.924 2.22135 654.023 2.76562V12.9336C654.023 12.9831 653.998 13.0078 653.949 13.0078C653.998 13.1068 654.023 13.181 654.023 13.2305C657.709 13.181 660.604 13.1562 662.706 13.1562H663.745C663.894 8.25781 664.067 4.54688 664.265 2.02344C664.5 1.72656 664.747 1.57812 665.007 1.57812ZM683.862 1.42969C684.444 1.42969 684.765 1.77604 684.827 2.46875C684.827 3.0625 684.159 3.35938 682.823 3.35938C680.646 3.35938 678.692 4.42318 676.96 6.55078C676.515 7.24349 676.292 8.0599 676.292 9V9.22266C676.292 10.6204 677.208 11.9069 679.038 13.082C680.325 13.4284 680.968 13.9232 680.968 14.5664V14.6406C680.968 15.2962 680.399 15.6921 679.261 15.8281C676.787 17.1641 675.55 19.0443 675.55 21.4688V21.6914C675.55 23.2253 676.441 24.4622 678.222 25.4023C679.112 25.7487 679.954 25.9219 680.745 25.9219H680.82C681.314 25.9219 681.908 25.8971 682.601 25.8477C683.145 26.0827 683.417 26.4043 683.417 26.8125C683.417 27.6042 682.724 28 681.339 28H680.82C677.789 28 675.538 26.7135 674.066 24.1406C673.67 23.4355 673.472 22.5202 673.472 21.3945C673.472 18.7227 674.758 16.4714 677.331 14.6406H677.48V14.4922C676.107 13.7129 675.092 12.4017 674.437 10.5586C674.288 10.0514 674.214 9.58138 674.214 9.14844C674.214 6.15495 675.822 3.85417 679.038 2.24609C680.3 1.70182 681.908 1.42969 683.862 1.42969ZM704.276 1.57812H704.425C704.882 1.57812 705.155 1.875 705.241 2.46875C705.043 13.0573 704.944 20.3307 704.944 24.2891V26.9609C704.944 27.6536 704.573 28 703.831 28C703.237 27.8763 702.94 27.5299 702.94 26.9609V20.875C702.94 19.5143 702.965 17.6094 703.015 15.1602H697.671C696.681 15.1602 695.197 15.1354 693.218 15.0859V15.7539C693.218 17.127 693.168 20.7389 693.069 26.5898C692.983 27.3815 692.661 27.7773 692.104 27.7773C691.412 27.7773 691.065 27.4062 691.065 26.6641C691.214 18.5124 691.288 12.4512 691.288 8.48047C691.387 4.27474 691.535 2.17188 691.733 2.17188L692.104 1.94922H692.55C692.946 1.94922 693.193 2.22135 693.292 2.76562V12.9336C693.292 12.9831 693.267 13.0078 693.218 13.0078C693.267 13.1068 693.292 13.181 693.292 13.2305C696.978 13.181 699.873 13.1562 701.976 13.1562H703.015C703.163 8.25781 703.336 4.54688 703.534 2.02344C703.769 1.72656 704.017 1.57812 704.276 1.57812ZM714.411 2.91406C715.054 2.96354 715.376 3.28516 715.376 3.87891V8.18359L714.634 23.4727C719.891 16.0879 724.839 9.60612 729.477 4.02734C729.886 3.73047 730.182 3.58203 730.368 3.58203C731.259 3.58203 731.704 3.92839 731.704 4.62109C731.704 9.29688 731.407 16.694 730.813 26.8125C730.516 27.1589 730.244 27.332 729.997 27.332H729.774C729.354 27.332 729.032 27.0352 728.809 26.4414C729.156 18.5866 729.477 12.1048 729.774 6.99609C727.214 9.98958 724.369 13.6263 721.239 17.9062L714.114 27.4805C713.805 27.5794 713.557 27.6289 713.372 27.6289C712.778 27.4557 712.481 27.1589 712.481 26.7383L713.52 4.02734C713.607 3.28516 713.904 2.91406 714.411 2.91406ZM748.537 1.50391C750.17 1.50391 750.986 1.82552 750.986 2.46875C750.986 4.06445 750.838 12.3027 750.541 27.1836C750.355 27.7279 749.984 28 749.427 28C748.982 28 748.66 27.6784 748.463 27.0352C748.512 26.2188 748.537 25.6003 748.537 25.1797V25.1055C748.537 23.0892 748.561 20.3678 748.611 16.9414C743.131 22.3965 739.668 25.8848 738.22 27.4062C737.911 27.5547 737.688 27.6289 737.552 27.6289C736.909 27.4557 736.588 27.0846 736.588 26.5156C736.612 26.1198 737.528 25.056 739.334 23.3242C740.36 22.2233 742.859 19.7741 746.83 15.9766C745.296 15.9766 743.638 15.3333 741.857 14.0469C740.274 12.748 739.482 11.1895 739.482 9.37109C739.482 6.24154 741.041 3.86654 744.158 2.24609C745.642 1.7513 747.102 1.50391 748.537 1.50391ZM741.56 9.14844C741.56 11.0658 742.55 12.4264 744.529 13.2305C745.407 13.7747 746.694 14.0469 748.388 14.0469H748.759C748.759 13.515 748.834 10.0267 748.982 3.58203L748.611 3.50781H747.795C745.321 3.50781 743.416 4.57161 742.08 6.69922C741.733 7.57747 741.56 8.39388 741.56 9.14844ZM13.2441 57.9102H13.6895C14.0977 57.9102 14.3698 58.207 14.5059 58.8008L14.209 68.0039C19.4661 62.8086 22.1628 60.2109 22.2988 60.2109H22.7441C23.3379 60.3346 23.6348 60.6315 23.6348 61.1016V61.1758C23.6348 61.6706 22.8926 62.5365 21.4082 63.7734L13.9863 71.1953C16.0521 73.6569 18.625 76.5762 21.7051 79.9531C22.8431 81.153 23.4121 81.8457 23.4121 82.0312V82.3281C23.2884 82.9219 22.9915 83.2188 22.5215 83.2188H22.2988C21.8659 83.2188 20.9505 82.3529 19.5527 80.6211L13.7637 74.1641C13.5163 78.4564 13.2689 81.8704 13.0215 84.4062C12.7617 84.8021 12.4154 85 11.9824 85C11.3392 84.8145 11.0176 84.5176 11.0176 84.1094C11.265 81.1406 11.4876 77.6276 11.6855 73.5703L2.25977 83.1445C2.07422 83.3177 1.82682 83.4414 1.51758 83.5156C0.923828 83.3796 0.626953 83.0827 0.626953 82.625V82.4766C0.626953 82.1426 1.36914 81.2767 2.85352 79.8789C4.38737 78.0729 7.13346 75.1536 11.0918 71.1211C8.30859 67.8926 6.13151 65.3197 4.56055 63.4023C3.07617 61.8438 2.33398 60.9036 2.33398 60.582V60.3594C2.33398 59.9388 2.63086 59.6667 3.22461 59.543C3.57096 59.543 4.48633 60.3841 5.9707 62.0664L12.0566 68.9688C12.2546 64.5651 12.4772 61.0273 12.7246 58.3555C13.0091 58.0586 13.1823 57.9102 13.2441 57.9102ZM39.8738 58.4297C40.4552 58.4297 40.7768 58.776 40.8387 59.4688C40.8387 60.0625 40.1707 60.3594 38.8348 60.3594C36.6577 60.3594 34.7033 61.4232 32.9715 63.5508C32.5262 64.2435 32.3035 65.0599 32.3035 66V66.2227C32.3035 67.6204 33.2189 68.9069 35.0496 70.082C36.3361 70.4284 36.9793 70.9232 36.9793 71.5664V71.6406C36.9793 72.2962 36.4103 72.6921 35.2723 72.8281C32.7983 74.1641 31.5613 76.0443 31.5613 78.4688V78.6914C31.5613 80.2253 32.452 81.4622 34.2332 82.4023C35.1238 82.7487 35.965 82.9219 36.7566 82.9219H36.8309C37.3257 82.9219 37.9194 82.8971 38.6121 82.8477C39.1564 83.0827 39.4285 83.4043 39.4285 83.8125C39.4285 84.6042 38.7358 85 37.3504 85H36.8309C33.8003 85 31.549 83.7135 30.077 81.1406C29.6811 80.4355 29.4832 79.5202 29.4832 78.3945C29.4832 75.7227 30.7697 73.4714 33.3426 71.6406H33.491V71.4922C32.118 70.7129 31.1036 69.4017 30.448 67.5586C30.2996 67.0514 30.2254 66.5814 30.2254 66.1484C30.2254 63.1549 31.8335 60.8542 35.0496 59.2461C36.3113 58.7018 37.9194 58.4297 39.8738 58.4297ZM59.6939 59.543H59.7682C60.5722 59.543 61.166 60.5078 61.5494 62.4375C62.539 65.3197 64.8398 72.321 68.4518 83.4414V83.5898C68.3528 84.2826 68.0064 84.6289 67.4127 84.6289C66.7695 84.6289 66.2252 83.6641 65.7799 81.7344C63.0585 73.7806 61.0299 67.4473 59.6939 62.7344H59.6197C56.3417 68.7708 52.705 75.9206 48.7096 84.1836C48.4498 84.7279 48.1035 85 47.6705 85C47.0768 84.7897 46.7799 84.4681 46.7799 84.0352C49.0064 78.7285 52.2721 72.0736 56.5768 64.0703C57.8632 61.6335 58.7786 60.1491 59.3229 59.6172L59.6939 59.543ZM85.8598 60.5078H86.0082C86.6885 60.5078 87.1339 60.7552 87.3441 61.25C88.4822 64.1569 90.4366 70.8118 93.2074 81.2148C93.4548 81.9818 93.7022 82.9219 93.9496 84.0352C93.7764 84.6784 93.4053 85 92.8363 85C92.1684 85 91.6983 84.1094 91.4262 82.3281C90.684 79.9408 90.0408 77.541 89.4965 75.1289C89.0017 75.1784 88.6306 75.2031 88.3832 75.2031H82.891C82.4704 75.2031 81.8025 75.1784 80.8871 75.1289C79.0811 79.681 77.7204 82.8229 76.8051 84.5547C76.6195 84.7031 76.3969 84.7773 76.1371 84.7773C75.5928 84.6908 75.3207 84.4186 75.3207 83.9609V83.6641C78.4255 75.2773 81.6911 67.707 85.1176 60.9531C85.3402 60.6562 85.5876 60.5078 85.8598 60.5078ZM86.0082 63.625C83.3734 69.3275 81.9385 72.5436 81.7035 73.2734C83.6332 73.1745 85.8845 73.125 88.4574 73.125H88.9027C87.6658 68.8203 86.7256 65.6784 86.0824 63.6992C86.0824 63.6497 86.0577 63.625 86.0082 63.625ZM114.438 58.5781H114.586C115.044 58.5781 115.316 58.875 115.403 59.4688C115.205 70.0573 115.106 77.3307 115.106 81.2891V83.9609C115.106 84.6536 114.735 85 113.992 85C113.399 84.8763 113.102 84.5299 113.102 83.9609V77.875C113.102 76.5143 113.127 74.6094 113.176 72.1602H107.832C106.843 72.1602 105.358 72.1354 103.379 72.0859V72.7539C103.379 74.127 103.33 77.7389 103.231 83.5898C103.144 84.3815 102.822 84.7773 102.266 84.7773C101.573 84.7773 101.227 84.4062 101.227 83.6641C101.375 75.5124 101.449 69.4512 101.449 65.4805C101.548 61.2747 101.697 59.1719 101.895 59.1719L102.266 58.9492H102.711C103.107 58.9492 103.354 59.2214 103.453 59.7656V69.9336C103.453 69.9831 103.429 70.0078 103.379 70.0078C103.429 70.1068 103.453 70.181 103.453 70.2305C107.14 70.181 110.034 70.1562 112.137 70.1562H113.176C113.324 65.2578 113.498 61.5469 113.696 59.0234C113.931 58.7266 114.178 58.5781 114.438 58.5781ZM124.572 59.9141C125.215 59.9635 125.537 60.2852 125.537 60.8789V65.1836L124.795 80.4727C130.052 73.0879 135 66.6061 139.639 61.0273C140.047 60.7305 140.344 60.582 140.529 60.582C141.42 60.582 141.865 60.9284 141.865 61.6211C141.865 66.2969 141.568 73.694 140.975 83.8125C140.678 84.1589 140.406 84.332 140.158 84.332H139.936C139.515 84.332 139.193 84.0352 138.971 83.4414C139.317 75.5866 139.639 69.1048 139.936 63.9961C137.375 66.9896 134.53 70.6263 131.4 74.9062L124.275 84.4805C123.966 84.5794 123.719 84.6289 123.533 84.6289C122.939 84.4557 122.643 84.1589 122.643 83.7383L123.682 61.0273C123.768 60.2852 124.065 59.9141 124.572 59.9141ZM156.917 53.9023H157.065C157.708 53.9023 158.03 54.5456 158.03 55.832C158.315 56.7721 158.884 57.2422 159.737 57.2422C160.257 57.2422 160.85 56.7227 161.518 55.6836C161.902 54.5456 162.347 53.9766 162.854 53.9766C163.547 54.1126 163.893 54.4342 163.893 54.9414V55.0898C163.522 56.5618 162.879 57.6504 161.964 58.3555C161.308 58.8874 160.591 59.209 159.811 59.3203C158.117 59.3203 156.954 58.4297 156.323 56.6484C156.175 56.166 156.1 55.7702 156.1 55.4609V54.7188C156.187 54.1745 156.459 53.9023 156.917 53.9023ZM150.46 60.1367C150.856 60.1367 151.152 60.4089 151.35 60.9531C151.35 62.2767 151.177 69.1048 150.831 81.4375C157.387 72.6055 162.087 66.3464 164.932 62.6602C165.427 61.8685 165.971 61.4727 166.565 61.4727C167.159 61.5964 167.456 61.9427 167.456 62.5117V65.4805C167.456 66.7793 167.307 71.9993 167.011 81.1406C166.961 81.3138 166.936 82.1549 166.936 83.6641C166.85 84.4557 166.479 84.8516 165.823 84.8516C165.415 84.8516 165.093 84.5794 164.858 84.0352C164.957 78.6667 165.18 72.4323 165.526 65.332C163.411 67.9915 159.403 73.3105 153.503 81.2891C151.969 83.2559 150.905 84.4681 150.311 84.9258C150.138 84.9753 150.039 85 150.014 85C149.173 84.8763 148.753 84.5052 148.753 83.8867C149.05 68.3008 149.346 60.5078 149.643 60.5078C149.928 60.2604 150.2 60.1367 150.46 60.1367ZM184.79 54.2734H185.049C185.458 54.2734 185.779 54.5641 186.014 55.1455C185.087 66.1051 184.184 74.9124 183.305 81.5674C182.996 81.9632 182.619 82.1611 182.173 82.1611C181.419 81.9756 181.042 81.5983 181.042 81.0293C181.747 74.9557 182.65 66.5938 183.751 55.9434C183.874 54.8301 184.221 54.2734 184.79 54.2734ZM181.654 84.0908H182.099C182.681 84.0908 183.027 84.4681 183.138 85.2227C182.977 86.3236 182.569 86.874 181.914 86.874H181.821C180.955 86.738 180.522 86.3916 180.522 85.835C180.646 84.6722 181.023 84.0908 181.654 84.0908ZM222.445 60.2852H222.741C223.422 60.2852 223.941 61.2995 224.3 63.3281C224.547 64.1198 225.438 67.8555 226.972 74.5352H227.046C229.483 70.2305 231.982 66.1732 234.542 62.3633C235.074 61.3737 235.618 60.8789 236.175 60.8789C237.115 60.8789 237.585 62.3633 237.585 65.332C238.327 73.1621 238.797 79.3717 238.995 83.9609C238.995 84.5547 238.624 84.901 237.882 85C237.189 85 236.843 84.2331 236.843 82.6992C236.695 79.6315 236.299 74.0156 235.655 65.8516V64.6641L235.507 64.5898L229.644 73.9414C229.273 74.8444 228.382 76.0814 226.972 77.6523C226.811 77.7513 226.663 77.8008 226.527 77.8008C225.797 77.8008 225.277 76.8359 224.968 74.9062C224.176 71.7025 223.31 67.9668 222.37 63.6992H222.222C220.589 67.3978 218.09 73.4342 214.726 81.8086C214.008 83.6888 213.514 84.6289 213.241 84.6289L212.87 84.7031C212.376 84.7031 212.079 84.3815 211.98 83.7383C213.86 78.3945 216.309 72.2096 219.327 65.1836C220.676 61.918 221.715 60.2852 222.445 60.2852ZM256.348 58.4297C256.929 58.4297 257.251 58.776 257.312 59.4688C257.312 60.0625 256.645 60.3594 255.309 60.3594C253.132 60.3594 251.177 61.4232 249.445 63.5508C249 64.2435 248.777 65.0599 248.777 66V66.2227C248.777 67.6204 249.693 68.9069 251.523 70.082C252.81 70.4284 253.453 70.9232 253.453 71.5664V71.6406C253.453 72.2962 252.884 72.6921 251.746 72.8281C249.272 74.1641 248.035 76.0443 248.035 78.4688V78.6914C248.035 80.2253 248.926 81.4622 250.707 82.4023C251.598 82.7487 252.439 82.9219 253.23 82.9219H253.305C253.799 82.9219 254.393 82.8971 255.086 82.8477C255.63 83.0827 255.902 83.4043 255.902 83.8125C255.902 84.6042 255.21 85 253.824 85H253.305C250.274 85 248.023 83.7135 246.551 81.1406C246.155 80.4355 245.957 79.5202 245.957 78.3945C245.957 75.7227 247.243 73.4714 249.816 71.6406H249.965V71.4922C248.592 70.7129 247.577 69.4017 246.922 67.5586C246.773 67.0514 246.699 66.5814 246.699 66.1484C246.699 63.1549 248.307 60.8542 251.523 59.2461C252.785 58.7018 254.393 58.4297 256.348 58.4297ZM276.762 58.5781H276.91C277.368 58.5781 277.64 58.875 277.726 59.4688C277.528 70.0573 277.43 77.3307 277.43 81.2891V83.9609C277.43 84.6536 277.058 85 276.316 85C275.722 84.8763 275.426 84.5299 275.426 83.9609V77.875C275.426 76.5143 275.45 74.6094 275.5 72.1602H270.156C269.166 72.1602 267.682 72.1354 265.703 72.0859V72.7539C265.703 74.127 265.653 77.7389 265.555 83.5898C265.468 84.3815 265.146 84.7773 264.59 84.7773C263.897 84.7773 263.551 84.4062 263.551 83.6641C263.699 75.5124 263.773 69.4512 263.773 65.4805C263.872 61.2747 264.021 59.1719 264.219 59.1719L264.59 58.9492H265.035C265.431 58.9492 265.678 59.2214 265.777 59.7656V69.9336C265.777 69.9831 265.752 70.0078 265.703 70.0078C265.752 70.1068 265.777 70.181 265.777 70.2305C269.463 70.181 272.358 70.1562 274.461 70.1562H275.5C275.648 65.2578 275.821 61.5469 276.019 59.0234C276.254 58.7266 276.502 58.5781 276.762 58.5781ZM294.912 58.5039C296.545 58.5039 297.361 58.8255 297.361 59.4688C297.361 61.0645 297.212 69.3027 296.916 84.1836C296.73 84.7279 296.359 85 295.802 85C295.357 85 295.035 84.6784 294.837 84.0352C294.887 83.2188 294.912 82.6003 294.912 82.1797V82.1055C294.912 80.0892 294.936 77.3678 294.986 73.9414C289.506 79.3965 286.043 82.8848 284.595 84.4062C284.286 84.5547 284.063 84.6289 283.927 84.6289C283.284 84.4557 282.962 84.0846 282.962 83.5156C282.987 83.1198 283.903 82.056 285.709 80.3242C286.735 79.2233 289.234 76.7741 293.205 72.9766C291.671 72.9766 290.013 72.3333 288.232 71.0469C286.649 69.748 285.857 68.1895 285.857 66.3711C285.857 63.2415 287.416 60.8665 290.533 59.2461C292.017 58.7513 293.477 58.5039 294.912 58.5039ZM287.935 66.1484C287.935 68.0658 288.925 69.4264 290.904 70.2305C291.782 70.7747 293.069 71.0469 294.763 71.0469H295.134C295.134 70.515 295.209 67.0267 295.357 60.582L294.986 60.5078H294.17C291.696 60.5078 289.791 61.5716 288.455 63.6992C288.108 64.5775 287.935 65.3939 287.935 66.1484ZM322.324 57.7617C324.563 57.7617 326.493 58.3307 328.113 59.4688C329.301 60.7923 329.895 62.1777 329.895 63.625V63.6992C329.895 66 328.682 68.0534 326.258 69.8594C325.714 70.1439 325.417 70.3418 325.367 70.4531C328.039 71.9499 329.375 74.2259 329.375 77.2812C329.375 79.681 328.113 81.7839 325.59 83.5898C323.697 84.5299 322.065 85 320.692 85H320.246C319.504 84.901 319.133 84.5794 319.133 84.0352V83.8867C319.133 83.2435 319.702 82.9219 320.84 82.9219C322.411 82.9219 324.019 82.2539 325.664 80.918C326.753 79.7799 327.297 78.543 327.297 77.207C327.297 74.5228 325.912 72.6426 323.141 71.5664C322.052 71.3932 321.508 71.1458 321.508 70.8242C321.421 70.8242 321.372 70.651 321.36 70.3047C321.36 69.6862 322.176 69.2161 323.809 68.8945C324.835 68.3626 325.627 67.8184 326.184 67.2617C327.272 66.099 327.817 64.9609 327.817 63.8477V63.4766C327.817 61.5469 326.456 60.3346 323.735 59.8398C322.658 59.6914 322.065 59.6172 321.953 59.6172C321.681 59.6667 321.409 59.6914 321.137 59.6914C320.617 59.6914 320.32 59.3698 320.246 58.7266C320.246 58.0833 320.939 57.7617 322.324 57.7617ZM348.379 59.7656C350.704 59.7656 352.758 60.9779 354.539 63.4023C355.529 64.8249 356.023 66.6803 356.023 68.9688V69.1172C356.023 76.3659 353.401 81.3385 348.156 84.0352C347.055 84.431 346.14 84.6289 345.41 84.6289C341.637 84.6289 339.089 82.9714 337.766 79.6562C337.023 77.5039 336.652 75.6484 336.652 74.0898C336.652 68.9564 338.483 64.7754 342.145 61.5469C343.975 60.3594 346.053 59.7656 348.379 59.7656ZM338.73 74.5352C338.73 76.6875 339.324 78.7904 340.512 80.8438C341.514 82.2292 343.146 82.9219 345.41 82.9219C347.748 82.9219 350.024 81.1901 352.238 77.7266C353.376 75.6361 353.945 72.9395 353.945 69.6367V68.9688C353.921 65.8021 352.51 63.625 349.715 62.4375C349.257 62.2891 348.837 62.2148 348.453 62.2148C345.311 62.2148 343.01 63.3034 341.551 65.4805C339.671 68.0658 338.73 71.084 338.73 74.5352ZM368.143 58.9492C369.69 58.9492 371.1 59.4935 372.374 60.582C373.314 61.5964 373.784 62.8086 373.784 64.2188V64.293C373.784 66.4206 372.473 68.276 369.85 69.8594C369.368 70.1562 369.046 70.3047 368.886 70.3047V70.3789C369.937 70.4902 371.273 71.2819 372.893 72.7539C374.18 74.2383 374.823 75.7969 374.823 77.4297C374.823 79.3965 373.71 81.3014 371.483 83.1445C369.504 84.3815 367.401 85 365.175 85H364.284C363.628 85 363.158 84.6536 362.874 83.9609C362.923 83.0085 362.948 82.39 362.948 82.1055C363.121 67.1628 363.542 59.6914 364.21 59.6914C364.742 59.1966 366.053 58.9492 368.143 58.9492ZM365.546 61.25C365.546 61.7201 365.471 64.2682 365.323 68.8945L365.249 69.2656C367.117 68.8327 368.428 68.3874 369.182 67.9297C370.865 66.7422 371.706 65.5299 371.706 64.293V63.9961C371.706 62.2396 370.469 61.2253 367.995 60.9531H365.991C365.694 60.9531 365.546 61.0521 365.546 61.25ZM365.175 71.6406V71.7148C365.076 75.3763 365.026 78.5182 365.026 81.1406V82.7734L364.952 82.9219C365.001 82.9219 365.026 82.9466 365.026 82.9961L365.175 82.9219H365.397C368.218 82.9219 370.419 81.8333 372.003 79.6562C372.498 78.877 372.745 78.11 372.745 77.3555C372.745 75.1289 371.236 73.4219 368.218 72.2344C367.29 71.9375 366.276 71.7396 365.175 71.6406ZM382.675 60.1367C383.158 60.1367 383.727 60.9779 384.382 62.6602C385.867 65.7155 387.351 68.61 388.836 71.3438L392.769 63.9961C393.252 63.2539 393.87 62.1654 394.625 60.7305C394.872 60.582 395.07 60.5078 395.218 60.5078C395.862 60.6191 396.183 60.9408 396.183 61.4727C396.183 61.7572 394.155 65.765 390.097 73.4961C389.145 75.1908 387.364 78.9017 384.754 84.6289C384.469 84.8763 384.222 85 384.011 85H383.863C383.319 85 382.997 84.6289 382.898 83.8867C383.987 81.2891 385.595 77.8503 387.722 73.5703C384.989 68.7337 382.985 64.5775 381.711 61.1016V61.0273C381.711 60.5326 382.032 60.2357 382.675 60.1367ZM404.685 60.0625H411.884C416.139 60.0625 418.267 60.2109 418.267 60.5078C418.415 60.8171 418.49 61.0892 418.49 61.3242C418.366 61.918 418.02 62.2148 417.451 62.2148C414.371 62.1654 412.614 62.1406 412.181 62.1406C411.835 77.0833 411.587 84.5547 411.439 84.5547C411.216 84.8516 410.969 85 410.697 85H410.4C410.016 85 409.719 84.7031 409.509 84.1094C409.818 71.9993 410.091 64.6764 410.326 62.1406H410.251C406.083 61.9922 403.881 61.918 403.646 61.918C403.201 61.7695 402.978 61.4479 402.978 60.9531C402.978 60.3594 403.547 60.0625 404.685 60.0625ZM451.005 58.6523H451.228C451.772 58.6523 452.044 58.974 452.044 59.6172V60.8789C452.601 60.7799 453.046 60.7305 453.38 60.7305C456.633 60.7305 458.86 61.918 460.06 64.293C460.455 65.2578 460.653 66.2969 460.653 67.4102C460.653 69.6243 459.293 71.6283 456.571 73.4219C454.951 74.263 453.293 74.6836 451.599 74.6836V74.7578C451.475 81.388 451.252 84.7031 450.931 84.7031C450.659 84.901 450.411 85 450.188 85C449.545 84.8268 449.224 84.5299 449.224 84.1094L449.521 74.7578H448.927C445.142 74.7578 442.643 73.7682 441.431 71.7891C440.54 70.6263 440.095 69.4635 440.095 68.3008V67.5586C440.095 64.8991 441.406 62.821 444.028 61.3242C445.203 60.8789 446.317 60.6562 447.368 60.6562H448.036C448.803 60.6562 449.521 60.7057 450.188 60.8047V59.6914C450.263 58.9987 450.535 58.6523 451.005 58.6523ZM442.173 67.4102V68.3008C442.173 69.7233 443.088 71.0098 444.919 72.1602C445.896 72.5065 447.059 72.6797 448.407 72.6797H449.224C449.521 72.6797 449.669 72.4818 449.669 72.0859C449.669 69.9831 449.793 66.8411 450.04 62.6602C449.459 62.6107 449.038 62.5859 448.778 62.5859H448.185C445.389 62.5859 443.534 63.5755 442.618 65.5547C442.321 66.2845 442.173 66.903 442.173 67.4102ZM451.673 72.6055C454.53 72.6055 456.683 71.418 458.13 69.043C458.427 68.5111 458.575 67.8926 458.575 67.1875C458.575 65.2826 457.808 63.9961 456.274 63.3281C455.582 62.8828 454.543 62.6602 453.157 62.6602H452.86C452.316 62.6602 452.044 62.7839 452.044 63.0312L451.673 72.6055ZM477.839 58.4297C478.42 58.4297 478.742 58.776 478.803 59.4688C478.803 60.0625 478.136 60.3594 476.8 60.3594C474.623 60.3594 472.668 61.4232 470.936 63.5508C470.491 64.2435 470.268 65.0599 470.268 66V66.2227C470.268 67.6204 471.184 68.9069 473.014 70.082C474.301 70.4284 474.944 70.9232 474.944 71.5664V71.6406C474.944 72.2962 474.375 72.6921 473.237 72.8281C470.763 74.1641 469.526 76.0443 469.526 78.4688V78.6914C469.526 80.2253 470.417 81.4622 472.198 82.4023C473.089 82.7487 473.93 82.9219 474.721 82.9219H474.796C475.29 82.9219 475.884 82.8971 476.577 82.8477C477.121 83.0827 477.393 83.4043 477.393 83.8125C477.393 84.6042 476.701 85 475.315 85H474.796C471.765 85 469.514 83.7135 468.042 81.1406C467.646 80.4355 467.448 79.5202 467.448 78.3945C467.448 75.7227 468.734 73.4714 471.307 71.6406H471.456V71.4922C470.083 70.7129 469.068 69.4017 468.413 67.5586C468.264 67.0514 468.19 66.5814 468.19 66.1484C468.19 63.1549 469.798 60.8542 473.014 59.2461C474.276 58.7018 475.884 58.4297 477.839 58.4297ZM492.89 53.9023H493.039C493.682 53.9023 494.004 54.5456 494.004 55.832C494.288 56.7721 494.857 57.2422 495.711 57.2422C496.23 57.2422 496.824 56.7227 497.492 55.6836C497.875 54.5456 498.321 53.9766 498.828 53.9766C499.52 54.1126 499.867 54.4342 499.867 54.9414V55.0898C499.496 56.5618 498.852 57.6504 497.937 58.3555C497.282 58.8874 496.564 59.209 495.785 59.3203C494.09 59.3203 492.927 58.4297 492.296 56.6484C492.148 56.166 492.074 55.7702 492.074 55.4609V54.7188C492.16 54.1745 492.433 53.9023 492.89 53.9023ZM486.433 60.1367C486.829 60.1367 487.126 60.4089 487.324 60.9531C487.324 62.2767 487.151 69.1048 486.804 81.4375C493.36 72.6055 498.061 66.3464 500.906 62.6602C501.401 61.8685 501.945 61.4727 502.539 61.4727C503.132 61.5964 503.429 61.9427 503.429 62.5117V65.4805C503.429 66.7793 503.281 71.9993 502.984 81.1406C502.934 81.3138 502.91 82.1549 502.91 83.6641C502.823 84.4557 502.452 84.8516 501.796 84.8516C501.388 84.8516 501.067 84.5794 500.832 84.0352C500.931 78.6667 501.153 72.4323 501.5 65.332C499.384 67.9915 495.377 73.3105 489.476 81.2891C487.942 83.2559 486.879 84.4681 486.285 84.9258C486.112 84.9753 486.013 85 485.988 85C485.147 84.8763 484.726 84.5052 484.726 83.8867C485.023 68.3008 485.32 60.5078 485.617 60.5078C485.901 60.2604 486.173 60.1367 486.433 60.1367ZM511.653 80.1758C512.197 80.349 512.469 80.6211 512.469 80.9922V81.2891C511.826 83.7135 511.282 84.9258 510.836 84.9258C510.75 84.9753 510.651 85 510.539 85C509.946 84.8763 509.649 84.5299 509.649 83.9609C510.416 81.487 510.96 80.25 511.282 80.25L511.653 80.1758ZM545.652 60.5078H545.801C546.481 60.5078 546.926 60.7552 547.137 61.25C548.275 64.1569 550.229 70.8118 553 81.2148C553.247 81.9818 553.495 82.9219 553.742 84.0352C553.569 84.6784 553.198 85 552.629 85C551.961 85 551.491 84.1094 551.219 82.3281C550.477 79.9408 549.833 77.541 549.289 75.1289C548.794 75.1784 548.423 75.2031 548.176 75.2031H542.684C542.263 75.2031 541.595 75.1784 540.68 75.1289C538.874 79.681 537.513 82.8229 536.598 84.5547C536.412 84.7031 536.189 84.7773 535.93 84.7773C535.385 84.6908 535.113 84.4186 535.113 83.9609V83.6641C538.218 75.2773 541.484 67.707 544.91 60.9531C545.133 60.6562 545.38 60.5078 545.652 60.5078ZM545.801 63.625C543.166 69.3275 541.731 72.5436 541.496 73.2734C543.426 73.1745 545.677 73.125 548.25 73.125H548.695C547.458 68.8203 546.518 65.6784 545.875 63.6992C545.875 63.6497 545.85 63.625 545.801 63.625ZM577.537 60.5078H578.427C581.371 60.5078 584.192 61.6211 586.888 63.8477C589.214 66.0866 590.377 69.0059 590.377 72.6055V73.0508C590.377 76.3411 589.016 79.3346 586.295 82.0312C583.969 84.0104 580.976 85 577.314 85H576.943C576.201 84.9382 575.83 84.5671 575.83 83.8867C575.991 83.2435 576.386 82.9219 577.017 82.9219H577.537C582.423 82.9219 585.763 80.8438 587.556 76.6875C588.051 75.3021 588.298 74.2135 588.298 73.4219H580.357C578.873 73.4219 578.13 73.1745 578.13 72.6797V72.3086C578.13 71.7643 578.798 71.4922 580.134 71.4922L588.224 71.2695C588.224 69.612 587.507 67.8307 586.072 65.9258C584.724 64.3548 582.522 63.2168 579.466 62.5117C577.685 62.4004 576.795 62.1777 576.795 61.8438L576.646 61.4727C576.745 60.8294 577.042 60.5078 577.537 60.5078ZM598.878 60.0625H606.078C610.333 60.0625 612.46 60.2109 612.46 60.5078C612.609 60.8171 612.683 61.0892 612.683 61.3242C612.559 61.918 612.213 62.2148 611.644 62.2148C608.564 62.1654 606.807 62.1406 606.374 62.1406C606.028 77.0833 605.781 84.5547 605.632 84.5547C605.41 84.8516 605.162 85 604.89 85H604.593C604.21 85 603.913 84.7031 603.703 84.1094C604.012 71.9993 604.284 64.6764 604.519 62.1406H604.445C600.276 61.9922 598.074 61.918 597.839 61.918C597.394 61.7695 597.171 61.4479 597.171 60.9531C597.171 60.3594 597.74 60.0625 598.878 60.0625ZM631.019 59.7656C633.344 59.7656 635.398 60.9779 637.179 63.4023C638.168 64.8249 638.663 66.6803 638.663 68.9688V69.1172C638.663 76.3659 636.041 81.3385 630.796 84.0352C629.695 84.431 628.78 84.6289 628.05 84.6289C624.277 84.6289 621.729 82.9714 620.405 79.6562C619.663 77.5039 619.292 75.6484 619.292 74.0898C619.292 68.9564 621.123 64.7754 624.784 61.5469C626.615 60.3594 628.693 59.7656 631.019 59.7656ZM621.37 74.5352C621.37 76.6875 621.964 78.7904 623.152 80.8438C624.154 82.2292 625.786 82.9219 628.05 82.9219C630.388 82.9219 632.664 81.1901 634.878 77.7266C636.016 75.6361 636.585 72.9395 636.585 69.6367V68.9688C636.56 65.8021 635.15 63.625 632.355 62.4375C631.897 62.2891 631.476 62.2148 631.093 62.2148C627.951 62.2148 625.65 63.3034 624.191 65.4805C622.31 68.0658 621.37 71.084 621.37 74.5352ZM671.104 60.2852H671.401C672.082 60.2852 672.601 61.2995 672.96 63.3281C673.207 64.1198 674.098 67.8555 675.632 74.5352H675.706C678.143 70.2305 680.641 66.1732 683.202 62.3633C683.734 61.3737 684.278 60.8789 684.835 60.8789C685.775 60.8789 686.245 62.3633 686.245 65.332C686.987 73.1621 687.457 79.3717 687.655 83.9609C687.655 84.5547 687.284 84.901 686.542 85C685.849 85 685.503 84.2331 685.503 82.6992C685.354 79.6315 684.958 74.0156 684.315 65.8516V64.6641L684.167 64.5898L678.304 73.9414C677.932 74.8444 677.042 76.0814 675.632 77.6523C675.471 77.7513 675.322 77.8008 675.186 77.8008C674.457 77.8008 673.937 76.8359 673.628 74.9062C672.836 71.7025 671.97 67.9668 671.03 63.6992H670.882C669.249 67.3978 666.75 73.4342 663.386 81.8086C662.668 83.6888 662.173 84.6289 661.901 84.6289L661.53 84.7031C661.035 84.7031 660.738 84.3815 660.639 83.7383C662.52 78.3945 664.969 72.2096 667.987 65.1836C669.335 61.918 670.374 60.2852 671.104 60.2852ZM706.158 59.7656C708.483 59.7656 710.537 60.9779 712.318 63.4023C713.308 64.8249 713.802 66.6803 713.802 68.9688V69.1172C713.802 76.3659 711.18 81.3385 705.935 84.0352C704.834 84.431 703.919 84.6289 703.189 84.6289C699.416 84.6289 696.868 82.9714 695.545 79.6562C694.802 77.5039 694.431 75.6484 694.431 74.0898C694.431 68.9564 696.262 64.7754 699.923 61.5469C701.754 60.3594 703.832 59.7656 706.158 59.7656ZM696.509 74.5352C696.509 76.6875 697.103 78.7904 698.291 80.8438C699.293 82.2292 700.925 82.9219 703.189 82.9219C705.527 82.9219 707.803 81.1901 710.017 77.7266C711.155 75.6361 711.724 72.9395 711.724 69.6367V68.9688C711.7 65.8021 710.289 63.625 707.494 62.4375C707.036 62.2891 706.616 62.2148 706.232 62.2148C703.09 62.2148 700.789 63.3034 699.33 65.4805C697.45 68.0658 696.509 71.084 696.509 74.5352ZM728.668 53.9023H728.817C729.46 53.9023 729.782 54.5456 729.782 55.832C730.066 56.7721 730.635 57.2422 731.489 57.2422C732.008 57.2422 732.602 56.7227 733.27 55.6836C733.653 54.5456 734.099 53.9766 734.606 53.9766C735.299 54.1126 735.645 54.4342 735.645 54.9414V55.0898C735.274 56.5618 734.631 57.6504 733.715 58.3555C733.06 58.8874 732.342 59.209 731.563 59.3203C729.868 59.3203 728.705 58.4297 728.075 56.6484C727.926 56.166 727.852 55.7702 727.852 55.4609V54.7188C727.939 54.1745 728.211 53.9023 728.668 53.9023ZM722.211 60.1367C722.607 60.1367 722.904 60.4089 723.102 60.9531C723.102 62.2767 722.929 69.1048 722.582 81.4375C729.138 72.6055 733.839 66.3464 736.684 62.6602C737.179 61.8685 737.723 61.4727 738.317 61.4727C738.911 61.5964 739.207 61.9427 739.207 62.5117V65.4805C739.207 66.7793 739.059 71.9993 738.762 81.1406C738.713 81.3138 738.688 82.1549 738.688 83.6641C738.601 84.4557 738.23 84.8516 737.575 84.8516C737.166 84.8516 736.845 84.5794 736.61 84.0352C736.709 78.6667 736.931 72.4323 737.278 65.332C735.162 67.9915 731.155 73.3105 725.254 81.2891C723.72 83.2559 722.657 84.4681 722.063 84.9258C721.89 84.9753 721.791 85 721.766 85C720.925 84.8763 720.504 84.5052 720.504 83.8867C720.801 68.3008 721.098 60.5078 721.395 60.5078C721.679 60.2604 721.952 60.1367 722.211 60.1367ZM774.636 58.5781H774.784C775.242 58.5781 775.514 58.875 775.601 59.4688C775.403 70.0573 775.304 77.3307 775.304 81.2891V83.9609C775.304 84.6536 774.933 85 774.19 85C773.597 84.8763 773.3 84.5299 773.3 83.9609V77.875C773.3 76.5143 773.325 74.6094 773.374 72.1602H768.03C767.041 72.1602 765.556 72.1354 763.577 72.0859V72.7539C763.577 74.127 763.528 77.7389 763.429 83.5898C763.342 84.3815 763.021 84.7773 762.464 84.7773C761.771 84.7773 761.425 84.4062 761.425 83.6641C761.573 75.5124 761.647 69.4512 761.647 65.4805C761.746 61.2747 761.895 59.1719 762.093 59.1719L762.464 58.9492H762.909C763.305 58.9492 763.552 59.2214 763.651 59.7656V69.9336C763.651 69.9831 763.627 70.0078 763.577 70.0078C763.627 70.1068 763.651 70.181 763.651 70.2305C767.338 70.181 770.232 70.1562 772.335 70.1562H773.374C773.522 65.2578 773.696 61.5469 773.894 59.0234C774.129 58.7266 774.376 58.5781 774.636 58.5781ZM793.491 58.4297C794.072 58.4297 794.394 58.776 794.456 59.4688C794.456 60.0625 793.788 60.3594 792.452 60.3594C790.275 60.3594 788.32 61.4232 786.589 63.5508C786.143 64.2435 785.921 65.0599 785.921 66V66.2227C785.921 67.6204 786.836 68.9069 788.667 70.082C789.953 70.4284 790.596 70.9232 790.596 71.5664V71.6406C790.596 72.2962 790.027 72.6921 788.889 72.8281C786.416 74.1641 785.179 76.0443 785.179 78.4688V78.6914C785.179 80.2253 786.069 81.4622 787.85 82.4023C788.741 82.7487 789.582 82.9219 790.374 82.9219H790.448C790.943 82.9219 791.537 82.8971 792.229 82.8477C792.774 83.0827 793.046 83.4043 793.046 83.8125C793.046 84.6042 792.353 85 790.968 85H790.448C787.417 85 785.166 83.7135 783.694 81.1406C783.298 80.4355 783.1 79.5202 783.1 78.3945C783.1 75.7227 784.387 73.4714 786.96 71.6406H787.108V71.4922C785.735 70.7129 784.721 69.4017 784.065 67.5586C783.917 67.0514 783.843 66.5814 783.843 66.1484C783.843 63.1549 785.451 60.8542 788.667 59.2461C789.929 58.7018 791.537 58.4297 793.491 58.4297ZM810.491 59.6172C811.085 59.7656 811.381 60.0625 811.381 60.5078V60.7305C811.381 61.3737 810.713 61.6953 809.378 61.6953C807.547 61.7943 805.37 61.8438 802.846 61.8438H802.698V70.4531H802.772C803.762 70.3542 804.306 70.3047 804.405 70.3047C806.297 70.3047 808.103 70.8984 809.823 72.0859C811.357 73.4095 812.124 75.1165 812.124 77.207C812.124 80.5716 810.045 83.0456 805.889 84.6289C804.875 84.8763 803.885 85 802.92 85H802.401C801.263 85 800.694 84.5052 800.694 83.5156V68.5977C800.694 66.9525 800.719 64.5033 800.768 61.25C800.768 60.5202 801.238 60.0996 802.178 59.9883C806.743 59.7409 809.514 59.6172 810.491 59.6172ZM802.698 72.3828V78.9141C802.698 79.8418 802.723 81.2025 802.772 82.9961C805.605 82.9961 807.856 81.8333 809.526 79.5078C809.872 78.5677 810.045 77.8255 810.045 77.2812V76.8359C810.045 74.263 808.116 72.7292 804.256 72.2344C803.922 72.2344 803.403 72.2839 802.698 72.3828ZM829.569 58.4297C830.15 58.4297 830.472 58.776 830.534 59.4688C830.534 60.0625 829.866 60.3594 828.53 60.3594C826.353 60.3594 824.398 61.4232 822.666 63.5508C822.221 64.2435 821.998 65.0599 821.998 66V66.2227C821.998 67.6204 822.914 68.9069 824.745 70.082C826.031 70.4284 826.674 70.9232 826.674 71.5664V71.6406C826.674 72.2962 826.105 72.6921 824.967 72.8281C822.493 74.1641 821.256 76.0443 821.256 78.4688V78.6914C821.256 80.2253 822.147 81.4622 823.928 82.4023C824.819 82.7487 825.66 82.9219 826.452 82.9219H826.526C827.021 82.9219 827.614 82.8971 828.307 82.8477C828.851 83.0827 829.123 83.4043 829.123 83.8125C829.123 84.6042 828.431 85 827.045 85H826.526C823.495 85 821.244 83.7135 819.772 81.1406C819.376 80.4355 819.178 79.5202 819.178 78.3945C819.178 75.7227 820.465 73.4714 823.037 71.6406H823.186V71.4922C821.813 70.7129 820.799 69.4017 820.143 67.5586C819.995 67.0514 819.92 66.5814 819.92 66.1484C819.92 63.1549 821.528 60.8542 824.745 59.2461C826.006 58.7018 827.614 58.4297 829.569 58.4297ZM849.741 59.543H850.484C850.855 59.543 851.127 59.8151 851.3 60.3594C851.3 61.1016 850.508 61.4727 848.925 61.4727C846.723 61.7201 844.472 62.6354 842.171 64.2188C839.796 66.6556 838.609 69.5501 838.609 72.9023V73.4961C838.609 77.071 839.969 79.7676 842.691 81.5859C844.41 82.4766 846.538 82.9219 849.073 82.9219C849.618 83.1322 849.89 83.5033 849.89 84.0352C849.729 84.6784 849.407 85 848.925 85C843.161 85 839.351 82.8229 837.495 78.4688C836.852 76.7988 836.53 75.0423 836.53 73.1992V73.0508C836.53 69.1543 837.842 65.8145 840.464 63.0312C843.309 60.7057 846.402 59.543 849.741 59.543ZM871.64 58.5781H871.788C872.246 58.5781 872.518 58.875 872.604 59.4688C872.407 70.0573 872.308 77.3307 872.308 81.2891V83.9609C872.308 84.6536 871.937 85 871.194 85C870.601 84.8763 870.304 84.5299 870.304 83.9609V77.875C870.304 76.5143 870.328 74.6094 870.378 72.1602H865.034C864.045 72.1602 862.56 72.1354 860.581 72.0859V72.7539C860.581 74.127 860.532 77.7389 860.433 83.5898C860.346 84.3815 860.024 84.7773 859.468 84.7773C858.775 84.7773 858.429 84.4062 858.429 83.6641C858.577 75.5124 858.651 69.4512 858.651 65.4805C858.75 61.2747 858.899 59.1719 859.097 59.1719L859.468 58.9492H859.913C860.309 58.9492 860.556 59.2214 860.655 59.7656V69.9336C860.655 69.9831 860.631 70.0078 860.581 70.0078C860.631 70.1068 860.655 70.181 860.655 70.2305C864.341 70.181 867.236 70.1562 869.339 70.1562H870.378C870.526 65.2578 870.7 61.5469 870.897 59.0234C871.132 58.7266 871.38 58.5781 871.64 58.5781ZM897.787 59.3203C898.282 59.3203 898.579 59.7409 898.678 60.582L898.381 83.1445C898.158 83.7878 897.787 84.1094 897.267 84.1094C896.933 84.1094 896.612 83.8372 896.303 83.293C896.463 67.5091 896.686 59.6172 896.971 59.6172C897.267 59.4193 897.54 59.3203 897.787 59.3203ZM880.791 60.2109C881.484 60.2109 881.83 60.7799 881.83 61.918L881.756 62.6602V65.7031C881.756 66.0247 881.78 66.3464 881.83 66.668C881.78 66.8535 881.731 67.8431 881.681 69.6367H883.017C886.456 69.6367 888.856 71.0716 890.217 73.9414C890.563 75.1042 890.736 76.1185 890.736 76.9844C890.736 79.7057 889.326 81.9323 886.506 83.6641C884.898 84.5547 883.116 85 881.162 85H880.791C879.95 84.8763 879.529 84.5052 879.529 83.8867C879.579 81.8333 879.603 80.2995 879.603 79.2852V71.8633C879.603 70.5768 879.702 67.0391 879.9 61.25C879.999 60.5573 880.296 60.2109 880.791 60.2109ZM881.681 71.5664C881.632 74.9557 881.607 77.4792 881.607 79.1367V82.9219H881.681C884.168 82.9219 886.221 81.8581 887.842 79.7305C888.386 78.877 888.658 77.9121 888.658 76.8359C888.658 74.832 887.866 73.3724 886.283 72.457C885.157 71.8633 884.044 71.5664 882.943 71.5664H881.681ZM913.302 53.9023H913.451C914.094 53.9023 914.416 54.5456 914.416 55.832C914.7 56.7721 915.269 57.2422 916.123 57.2422C916.642 57.2422 917.236 56.7227 917.904 55.6836C918.287 54.5456 918.733 53.9766 919.24 53.9766C919.933 54.1126 920.279 54.4342 920.279 54.9414V55.0898C919.908 56.5618 919.265 57.6504 918.349 58.3555C917.694 58.8874 916.976 59.209 916.197 59.3203C914.502 59.3203 913.339 58.4297 912.709 56.6484C912.56 56.166 912.486 55.7702 912.486 55.4609V54.7188C912.572 54.1745 912.845 53.9023 913.302 53.9023ZM906.845 60.1367C907.241 60.1367 907.538 60.4089 907.736 60.9531C907.736 62.2767 907.563 69.1048 907.216 81.4375C913.772 72.6055 918.473 66.3464 921.318 62.6602C921.813 61.8685 922.357 61.4727 922.951 61.4727C923.544 61.5964 923.841 61.9427 923.841 62.5117V65.4805C923.841 66.7793 923.693 71.9993 923.396 81.1406C923.347 81.3138 923.322 82.1549 923.322 83.6641C923.235 84.4557 922.864 84.8516 922.209 84.8516C921.8 84.8516 921.479 84.5794 921.244 84.0352C921.343 78.6667 921.565 72.4323 921.912 65.332C919.796 67.9915 915.789 73.3105 909.888 81.2891C908.354 83.2559 907.291 84.4681 906.697 84.9258C906.524 84.9753 906.425 85 906.4 85C905.559 84.8763 905.138 84.5052 905.138 83.8867C905.435 68.3008 905.732 60.5078 906.029 60.5078C906.313 60.2604 906.586 60.1367 906.845 60.1367ZM13.4111 115.652H13.6338C14.1781 115.652 14.4502 115.974 14.4502 116.617V117.879C15.0068 117.78 15.4521 117.73 15.7861 117.73C19.0394 117.73 21.266 118.918 22.4658 121.293C22.8617 122.258 23.0596 123.297 23.0596 124.41C23.0596 126.624 21.6989 128.628 18.9775 130.422C17.3571 131.263 15.6995 131.684 14.0049 131.684V131.758C13.8812 138.388 13.6585 141.703 13.3369 141.703C13.0648 141.901 12.8174 142 12.5947 142C11.9515 141.827 11.6299 141.53 11.6299 141.109L11.9268 131.758H11.333C7.54785 131.758 5.04915 130.768 3.83691 128.789C2.94629 127.626 2.50098 126.464 2.50098 125.301V124.559C2.50098 121.899 3.81217 119.821 6.43457 118.324C7.6097 117.879 8.72298 117.656 9.77441 117.656H10.4424C11.2093 117.656 11.9268 117.706 12.5947 117.805V116.691C12.6689 115.999 12.9411 115.652 13.4111 115.652ZM4.5791 124.41V125.301C4.5791 126.723 5.49447 128.01 7.3252 129.16C8.30241 129.507 9.46517 129.68 10.8135 129.68H11.6299C11.9268 129.68 12.0752 129.482 12.0752 129.086C12.0752 126.983 12.1989 123.841 12.4463 119.66C11.8649 119.611 11.4443 119.586 11.1846 119.586H10.5908C7.79525 119.586 5.93978 120.576 5.02441 122.555C4.72754 123.285 4.5791 123.903 4.5791 124.41ZM14.0791 129.605C16.9365 129.605 19.0889 128.418 20.5361 126.043C20.833 125.511 20.9814 124.893 20.9814 124.188C20.9814 122.283 20.2145 120.996 18.6807 120.328C17.988 119.883 16.9489 119.66 15.5635 119.66H15.2666C14.7223 119.66 14.4502 119.784 14.4502 120.031L14.0791 129.605ZM41.3953 116.766C43.7208 116.766 45.7742 117.978 47.5555 120.402C48.5451 121.825 49.0398 123.68 49.0398 125.969V126.117C49.0398 133.366 46.4174 138.339 41.1727 141.035C40.0717 141.431 39.1564 141.629 38.4266 141.629C34.6538 141.629 32.1056 139.971 30.782 136.656C30.0398 134.504 29.6688 132.648 29.6688 131.09C29.6688 125.956 31.4995 121.775 35.1609 118.547C36.9917 117.359 39.0698 116.766 41.3953 116.766ZM31.7469 131.535C31.7469 133.688 32.3406 135.79 33.5281 137.844C34.5301 139.229 36.1629 139.922 38.4266 139.922C40.7645 139.922 43.0405 138.19 45.2547 134.727C46.3927 132.636 46.9617 129.939 46.9617 126.637V125.969C46.937 122.802 45.5268 120.625 42.7313 119.438C42.2736 119.289 41.853 119.215 41.4695 119.215C38.3276 119.215 36.0268 120.303 34.5672 122.48C32.687 125.066 31.7469 128.084 31.7469 131.535ZM69.2682 115.578H69.4166C69.8743 115.578 70.1464 115.875 70.233 116.469C70.0351 127.057 69.9361 134.331 69.9361 138.289V140.961C69.9361 141.654 69.565 142 68.8229 142C68.2291 141.876 67.9322 141.53 67.9322 140.961V134.875C67.9322 133.514 67.957 131.609 68.0064 129.16H62.6627C61.6731 129.16 60.1887 129.135 58.2096 129.086V129.754C58.2096 131.127 58.1601 134.739 58.0611 140.59C57.9745 141.382 57.6529 141.777 57.0963 141.777C56.4036 141.777 56.0572 141.406 56.0572 140.664C56.2057 132.512 56.2799 126.451 56.2799 122.48C56.3788 118.275 56.5273 116.172 56.7252 116.172L57.0963 115.949H57.5416C57.9374 115.949 58.1848 116.221 58.2838 116.766V126.934C58.2838 126.983 58.2591 127.008 58.2096 127.008C58.2591 127.107 58.2838 127.181 58.2838 127.23C61.97 127.181 64.8645 127.156 66.9674 127.156H68.0064C68.1549 122.258 68.3281 118.547 68.526 116.023C68.761 115.727 69.0084 115.578 69.2682 115.578ZM88.1605 117.508H88.309C88.9893 117.508 89.4346 117.755 89.6449 118.25C90.7829 121.157 92.7374 127.812 95.5082 138.215C95.7556 138.982 96.003 139.922 96.2504 141.035C96.0772 141.678 95.7061 142 95.1371 142C94.4691 142 93.9991 141.109 93.727 139.328C92.9848 136.941 92.3415 134.541 91.7973 132.129C91.3025 132.178 90.9314 132.203 90.684 132.203H85.1918C84.7712 132.203 84.1033 132.178 83.1879 132.129C81.3819 136.681 80.0212 139.823 79.1059 141.555C78.9203 141.703 78.6977 141.777 78.4379 141.777C77.8936 141.691 77.6215 141.419 77.6215 140.961V140.664C80.7263 132.277 83.9919 124.707 87.4184 117.953C87.641 117.656 87.8884 117.508 88.1605 117.508ZM88.309 120.625C85.6742 126.327 84.2393 129.544 84.0043 130.273C85.934 130.174 88.1853 130.125 90.7582 130.125H91.2035C89.9665 125.82 89.0264 122.678 88.3832 120.699C88.3832 120.65 88.3585 120.625 88.309 120.625ZM107.498 116.617C109.527 116.617 111.407 117.26 113.139 118.547C114.574 120.105 115.291 121.911 115.291 123.965C115.291 125.684 114.5 127.416 112.916 129.16C110.974 130.892 108.599 131.758 105.791 131.758V131.832L105.717 132.203C105.581 138.388 105.432 141.48 105.272 141.48C105.099 141.74 104.802 141.913 104.381 142C103.936 142 103.589 141.678 103.342 141.035C103.787 128.121 104.158 120.279 104.455 117.508C104.727 116.914 105.618 116.617 107.127 116.617H107.498ZM106.237 118.547L106.162 119.289C106.162 121.367 106.063 124.806 105.865 129.605C105.816 129.605 105.791 129.63 105.791 129.68H105.94C108.636 129.68 110.739 128.715 112.248 126.785C112.891 125.758 113.213 124.794 113.213 123.891C113.213 121.911 112.446 120.452 110.912 119.512C109.416 118.868 108.278 118.547 107.498 118.547H106.237ZM123.979 116.914C124.622 116.964 124.943 117.285 124.943 117.879V122.184L124.201 137.473C129.458 130.088 134.406 123.606 139.045 118.027C139.453 117.73 139.75 117.582 139.936 117.582C140.826 117.582 141.271 117.928 141.271 118.621C141.271 123.297 140.975 130.694 140.381 140.812C140.084 141.159 139.812 141.332 139.564 141.332H139.342C138.921 141.332 138.6 141.035 138.377 140.441C138.723 132.587 139.045 126.105 139.342 120.996C136.781 123.99 133.936 127.626 130.807 131.906L123.682 141.48C123.372 141.579 123.125 141.629 122.939 141.629C122.346 141.456 122.049 141.159 122.049 140.738L123.088 118.027C123.174 117.285 123.471 116.914 123.979 116.914ZM150.423 115.43C150.893 115.43 151.214 115.702 151.387 116.246C151.289 120.192 151.14 123.705 150.942 126.785C158.042 119.512 161.902 115.875 162.52 115.875H162.743C163.25 115.875 163.572 116.221 163.708 116.914C163.708 117.26 163.015 117.978 161.63 119.066C159.341 121.268 156.768 123.792 153.911 126.637V126.711L159.848 134.578C162.471 138.091 163.782 139.996 163.782 140.293V140.441C163.609 141.035 163.312 141.332 162.891 141.332H162.743C162.186 141.332 161.494 140.59 160.665 139.105C157.486 134.887 154.764 131.201 152.501 128.047C151.264 129.012 150.645 129.68 150.645 130.051C150.447 131.931 150.274 135.592 150.126 141.035C150.126 141.518 149.779 141.839 149.087 142C148.394 141.839 148.048 141.518 148.048 141.035C148.048 138.425 148.419 131.968 149.161 121.664C149.359 117.706 149.557 115.727 149.755 115.727C150.014 115.529 150.237 115.43 150.423 115.43ZM171.56 139.477C172.166 139.477 172.513 139.848 172.599 140.59V140.738C172.463 141.579 172.117 142 171.56 142H171.412C170.818 142 170.472 141.629 170.373 140.887C170.472 139.947 170.843 139.477 171.486 139.477H171.56ZM4.39355 231.062H11.5928C15.848 231.062 17.9756 231.211 17.9756 231.508C18.124 231.817 18.1982 232.089 18.1982 232.324C18.0745 232.918 17.7282 233.215 17.1592 233.215C14.0791 233.165 12.3226 233.141 11.8896 233.141C11.5433 248.083 11.2959 255.555 11.1475 255.555C10.9248 255.852 10.6774 256 10.4053 256H10.1084C9.72493 256 9.42806 255.703 9.21777 255.109C9.52702 242.999 9.79915 235.676 10.0342 233.141H9.95996C5.79134 232.992 3.58952 232.918 3.35449 232.918C2.90918 232.77 2.68652 232.448 2.68652 231.953C2.68652 231.359 3.25553 231.062 4.39355 231.062ZM42.6756 230.32C43.1704 230.32 43.4673 230.741 43.5662 231.582L43.2693 254.145C43.0467 254.788 42.6756 255.109 42.1561 255.109C41.8221 255.109 41.5005 254.837 41.1912 254.293C41.352 238.509 41.5747 230.617 41.8592 230.617C42.1561 230.419 42.4282 230.32 42.6756 230.32ZM25.6795 231.211C26.3722 231.211 26.7186 231.78 26.7186 232.918L26.6443 233.66V236.703C26.6443 237.025 26.6691 237.346 26.7186 237.668C26.6691 237.854 26.6196 238.843 26.5701 240.637H27.9061C31.3449 240.637 33.7446 242.072 35.1053 244.941C35.4516 246.104 35.6248 247.118 35.6248 247.984C35.6248 250.706 34.2146 252.932 31.3943 254.664C29.7863 255.555 28.005 256 26.0506 256H25.6795C24.8383 255.876 24.4178 255.505 24.4178 254.887C24.4673 252.833 24.492 251.299 24.492 250.285V242.863C24.492 241.577 24.591 238.039 24.7889 232.25C24.8878 231.557 25.1847 231.211 25.6795 231.211ZM26.5701 242.566C26.5206 245.956 26.4959 248.479 26.4959 250.137V253.922H26.5701C29.0564 253.922 31.1098 252.858 32.7303 250.73C33.2745 249.877 33.5467 248.912 33.5467 247.836C33.5467 245.832 32.755 244.372 31.1717 243.457C30.046 242.863 28.9327 242.566 27.8318 242.566H26.5701ZM68.3627 228.762C70.6016 228.762 72.5313 229.331 74.1518 230.469C75.3393 231.792 75.933 233.178 75.933 234.625V234.699C75.933 237 74.7208 239.053 72.2963 240.859C71.752 241.144 71.4551 241.342 71.4057 241.453C74.0775 242.95 75.4135 245.226 75.4135 248.281C75.4135 250.681 74.1518 252.784 71.6283 254.59C69.7357 255.53 68.1029 256 66.7299 256H66.2846C65.5424 255.901 65.1713 255.579 65.1713 255.035V254.887C65.1713 254.243 65.7403 253.922 66.8783 253.922C68.4493 253.922 70.0574 253.254 71.7025 251.918C72.7911 250.78 73.3354 249.543 73.3354 248.207C73.3354 245.523 71.9499 243.643 69.1791 242.566C68.0906 242.393 67.5463 242.146 67.5463 241.824C67.4597 241.824 67.4102 241.651 67.3979 241.305C67.3979 240.686 68.2143 240.216 69.8471 239.895C70.8738 239.363 71.6654 238.818 72.2221 238.262C73.3106 237.099 73.8549 235.961 73.8549 234.848V234.477C73.8549 232.547 72.4942 231.335 69.7729 230.84C68.6967 230.691 68.1029 230.617 67.9916 230.617C67.7195 230.667 67.4473 230.691 67.1752 230.691C66.6557 230.691 66.3588 230.37 66.2846 229.727C66.2846 229.083 66.9773 228.762 68.3627 228.762ZM96.6438 229.801C97.4973 229.801 98.2147 231.458 98.7961 234.773C99.3404 236.406 100.355 241.206 101.839 249.172L101.988 249.246H104.956C105.76 249.246 106.28 249.592 106.515 250.285C106.515 251.027 106.54 251.398 106.589 251.398C106.54 251.906 106.515 252.301 106.515 252.586V254.738C106.416 255.48 106.094 255.852 105.55 255.852C104.981 255.852 104.635 255.555 104.511 254.961C104.61 252.759 104.659 251.547 104.659 251.324L83.4328 250.805V250.879C83.3091 254.145 83.1112 255.777 82.8391 255.777C82.5917 255.926 82.3443 256 82.0969 256C81.6887 256 81.3671 255.728 81.132 255.184C81.4165 251.176 81.7629 249.172 82.1711 249.172C82.3814 248.974 83.1236 248.875 84.3977 248.875L88.5539 241.305C91.968 235.701 94.3182 232.04 95.6047 230.32C95.9634 229.974 96.3098 229.801 96.6438 229.801ZM86.6242 248.801H87.218L99.7609 249.172C98.6229 243.321 97.5096 237.878 96.4211 232.844H96.3469C96.0871 233.104 94.8501 235.033 92.6359 238.633C91.5598 240.352 89.5559 243.742 86.6242 248.801ZM124.201 229.43C124.783 229.43 125.104 229.776 125.166 230.469C125.166 231.062 124.498 231.359 123.162 231.359C120.985 231.359 119.031 232.423 117.299 234.551C116.854 235.243 116.631 236.06 116.631 237V237.223C116.631 238.62 117.546 239.907 119.377 241.082C120.663 241.428 121.307 241.923 121.307 242.566V242.641C121.307 243.296 120.738 243.692 119.6 243.828C117.126 245.164 115.889 247.044 115.889 249.469V249.691C115.889 251.225 116.779 252.462 118.561 253.402C119.451 253.749 120.292 253.922 121.084 253.922H121.158C121.653 253.922 122.247 253.897 122.939 253.848C123.484 254.083 123.756 254.404 123.756 254.812C123.756 255.604 123.063 256 121.678 256H121.158C118.128 256 115.876 254.714 114.404 252.141C114.008 251.436 113.811 250.52 113.811 249.395C113.811 246.723 115.097 244.471 117.67 242.641H117.818V242.492C116.445 241.713 115.431 240.402 114.775 238.559C114.627 238.051 114.553 237.581 114.553 237.148C114.553 234.155 116.161 231.854 119.377 230.246C120.639 229.702 122.247 229.43 124.201 229.43ZM144.374 230.543H145.116C145.487 230.543 145.759 230.815 145.932 231.359C145.932 232.102 145.141 232.473 143.557 232.473C141.356 232.72 139.104 233.635 136.804 235.219C134.429 237.656 133.241 240.55 133.241 243.902V244.496C133.241 248.071 134.602 250.768 137.323 252.586C139.042 253.477 141.17 253.922 143.706 253.922C144.25 254.132 144.522 254.503 144.522 255.035C144.361 255.678 144.04 256 143.557 256C137.793 256 133.983 253.823 132.128 249.469C131.485 247.799 131.163 246.042 131.163 244.199V244.051C131.163 240.154 132.474 236.814 135.096 234.031C137.942 231.706 141.034 230.543 144.374 230.543ZM154.156 230.395H154.304C154.898 230.395 155.195 230.889 155.195 231.879V234.477C155.195 235.837 155.17 237.742 155.121 240.191H156.234C159.067 240.191 161.442 241.552 163.359 244.273C163.903 245.424 164.175 246.587 164.175 247.762C164.175 250.174 162.988 252.301 160.613 254.145C158.745 255.382 157.038 256 155.492 256H154.453C153.315 256 152.746 255.654 152.746 254.961C152.894 250.112 153.018 243.952 153.117 236.48C153.253 232.881 153.377 230.976 153.488 230.766C153.686 230.518 153.908 230.395 154.156 230.395ZM155.046 242.047V242.121C154.997 248.318 154.923 252.277 154.824 253.996C157.199 253.996 159.203 253.031 160.836 251.102C161.677 250.112 162.097 248.949 162.097 247.613C162.097 245.065 160.489 243.284 157.273 242.27C156.852 242.121 156.11 242.047 155.046 242.047ZM191.644 229.949C193.19 229.949 194.6 230.493 195.874 231.582C196.814 232.596 197.284 233.809 197.284 235.219V235.293C197.284 237.421 195.973 239.276 193.351 240.859C192.868 241.156 192.547 241.305 192.386 241.305V241.379C193.437 241.49 194.773 242.282 196.394 243.754C197.68 245.238 198.323 246.797 198.323 248.43C198.323 250.396 197.21 252.301 194.984 254.145C193.004 255.382 190.902 256 188.675 256H187.784C187.129 256 186.659 255.654 186.374 254.961C186.424 254.008 186.448 253.39 186.448 253.105C186.622 238.163 187.042 230.691 187.71 230.691C188.242 230.197 189.553 229.949 191.644 229.949ZM189.046 232.25C189.046 232.72 188.972 235.268 188.823 239.895L188.749 240.266C190.617 239.833 191.928 239.387 192.683 238.93C194.365 237.742 195.206 236.53 195.206 235.293V234.996C195.206 233.24 193.969 232.225 191.495 231.953H189.491C189.195 231.953 189.046 232.052 189.046 232.25ZM188.675 242.641V242.715C188.576 246.376 188.527 249.518 188.527 252.141V253.773L188.452 253.922C188.502 253.922 188.527 253.947 188.527 253.996L188.675 253.922H188.898C191.718 253.922 193.92 252.833 195.503 250.656C195.998 249.877 196.245 249.11 196.245 248.355C196.245 246.129 194.736 244.422 191.718 243.234C190.79 242.938 189.776 242.74 188.675 242.641ZM212.132 232.102C218.96 232.225 222.374 232.398 222.374 232.621C222.646 232.918 222.795 233.314 222.819 233.809C222.77 248.207 222.572 255.406 222.226 255.406C221.929 255.604 221.657 255.703 221.409 255.703H221.335C220.902 255.703 220.58 255.406 220.37 254.812C220.494 254.812 220.618 249.048 220.741 237.52C220.778 237.433 220.853 236.419 220.964 234.477C217.006 234.229 212.8 234.105 208.347 234.105C208.347 234.155 208.322 234.18 208.272 234.18C208.223 235.095 208.198 235.763 208.198 236.184V237.297C208.198 237.495 208.174 237.693 208.124 237.891C208.174 238.076 208.198 238.274 208.198 238.484C208.198 239.511 208 245.077 207.604 255.184C207.369 255.728 207.048 256 206.64 256C205.947 255.864 205.601 255.542 205.601 255.035V253.848C206.034 239.944 206.38 232.992 206.64 232.992C206.64 232.398 208.47 232.102 212.132 232.102ZM240.524 229.43C241.106 229.43 241.427 229.776 241.489 230.469C241.489 231.062 240.821 231.359 239.485 231.359C237.308 231.359 235.354 232.423 233.622 234.551C233.177 235.243 232.954 236.06 232.954 237V237.223C232.954 238.62 233.869 239.907 235.7 241.082C236.986 241.428 237.63 241.923 237.63 242.566V242.641C237.63 243.296 237.061 243.692 235.923 243.828C233.449 245.164 232.212 247.044 232.212 249.469V249.691C232.212 251.225 233.102 252.462 234.884 253.402C235.774 253.749 236.615 253.922 237.407 253.922H237.481C237.976 253.922 238.57 253.897 239.262 253.848C239.807 254.083 240.079 254.404 240.079 254.812C240.079 255.604 239.386 256 238.001 256H237.481C234.451 256 232.199 254.714 230.727 252.141C230.332 251.436 230.134 250.52 230.134 249.395C230.134 246.723 231.42 244.471 233.993 242.641H234.141V242.492C232.768 241.713 231.754 240.402 231.098 238.559C230.95 238.051 230.876 237.581 230.876 237.148C230.876 234.155 232.484 231.854 235.7 230.246C236.962 229.702 238.57 229.43 240.524 229.43ZM251.698 230.617C253.726 230.617 255.607 231.26 257.338 232.547C258.773 234.105 259.491 235.911 259.491 237.965C259.491 239.684 258.699 241.416 257.116 243.16C255.174 244.892 252.799 245.758 249.991 245.758V245.832L249.917 246.203C249.781 252.388 249.632 255.48 249.471 255.48C249.298 255.74 249.001 255.913 248.581 256C248.135 256 247.789 255.678 247.542 255.035C247.987 242.121 248.358 234.279 248.655 231.508C248.927 230.914 249.818 230.617 251.327 230.617H251.698ZM250.436 232.547L250.362 233.289C250.362 235.367 250.263 238.806 250.065 243.605C250.016 243.605 249.991 243.63 249.991 243.68H250.139C252.836 243.68 254.939 242.715 256.448 240.785C257.091 239.758 257.413 238.794 257.413 237.891C257.413 235.911 256.646 234.452 255.112 233.512C253.615 232.868 252.477 232.547 251.698 232.547H250.436ZM271.666 229.949C273.213 229.949 274.623 230.493 275.897 231.582C276.837 232.596 277.307 233.809 277.307 235.219V235.293C277.307 237.421 275.996 239.276 273.373 240.859C272.891 241.156 272.569 241.305 272.409 241.305V241.379C273.46 241.49 274.796 242.282 276.416 243.754C277.703 245.238 278.346 246.797 278.346 248.43C278.346 250.396 277.233 252.301 275.006 254.145C273.027 255.382 270.924 256 268.698 256H267.807C267.151 256 266.681 255.654 266.397 254.961C266.446 254.008 266.471 253.39 266.471 253.105C266.644 238.163 267.065 230.691 267.733 230.691C268.265 230.197 269.576 229.949 271.666 229.949ZM269.069 232.25C269.069 232.72 268.995 235.268 268.846 239.895L268.772 240.266C270.64 239.833 271.951 239.387 272.705 238.93C274.388 237.742 275.229 236.53 275.229 235.293V234.996C275.229 233.24 273.992 232.225 271.518 231.953H269.514C269.217 231.953 269.069 232.052 269.069 232.25ZM268.698 242.641V242.715C268.599 246.376 268.549 249.518 268.549 252.141V253.773L268.475 253.922C268.524 253.922 268.549 253.947 268.549 253.996L268.698 253.922H268.92C271.741 253.922 273.942 252.833 275.526 250.656C276.021 249.877 276.268 249.11 276.268 248.355C276.268 246.129 274.759 244.422 271.741 243.234C270.813 242.938 269.799 242.74 268.698 242.641ZM303.176 230.32C303.671 230.32 303.968 230.741 304.067 231.582L303.77 254.145C303.547 254.788 303.176 255.109 302.656 255.109C302.322 255.109 302.001 254.837 301.692 254.293C301.852 238.509 302.075 230.617 302.36 230.617C302.656 230.419 302.929 230.32 303.176 230.32ZM286.18 231.211C286.873 231.211 287.219 231.78 287.219 232.918L287.145 233.66V236.703C287.145 237.025 287.169 237.346 287.219 237.668C287.169 237.854 287.12 238.843 287.07 240.637H288.406C291.845 240.637 294.245 242.072 295.606 244.941C295.952 246.104 296.125 247.118 296.125 247.984C296.125 250.706 294.715 252.932 291.895 254.664C290.287 255.555 288.505 256 286.551 256H286.18C285.339 255.876 284.918 255.505 284.918 254.887C284.968 252.833 284.992 251.299 284.992 250.285V242.863C284.992 241.577 285.091 238.039 285.289 232.25C285.388 231.557 285.685 231.211 286.18 231.211ZM287.07 242.566C287.021 245.956 286.996 248.479 286.996 250.137V253.922H287.07C289.557 253.922 291.61 252.858 293.231 250.73C293.775 249.877 294.047 248.912 294.047 247.836C294.047 245.832 293.255 244.372 291.672 243.457C290.546 242.863 289.433 242.566 288.332 242.566H287.07ZM321.178 229.43C321.759 229.43 322.081 229.776 322.143 230.469C322.143 231.062 321.475 231.359 320.139 231.359C317.962 231.359 316.007 232.423 314.275 234.551C313.83 235.243 313.607 236.06 313.607 237V237.223C313.607 238.62 314.523 239.907 316.354 241.082C317.64 241.428 318.283 241.923 318.283 242.566V242.641C318.283 243.296 317.714 243.692 316.576 243.828C314.102 245.164 312.865 247.044 312.865 249.469V249.691C312.865 251.225 313.756 252.462 315.537 253.402C316.428 253.749 317.269 253.922 318.061 253.922H318.135C318.63 253.922 319.223 253.897 319.916 253.848C320.46 254.083 320.732 254.404 320.732 254.812C320.732 255.604 320.04 256 318.654 256H318.135C315.104 256 312.853 254.714 311.381 252.141C310.985 251.436 310.787 250.52 310.787 249.395C310.787 246.723 312.074 244.471 314.646 242.641H314.795V242.492C313.422 241.713 312.408 240.402 311.752 238.559C311.604 238.051 311.529 237.581 311.529 237.148C311.529 234.155 313.137 231.854 316.354 230.246C317.615 229.702 319.223 229.43 321.178 229.43ZM333.446 228.02C336.18 228.02 338.184 229.628 339.458 232.844C339.755 233.648 339.903 234.736 339.903 236.109C339.903 239.363 337.726 242.653 333.372 245.98C331.652 247.848 330.613 249.555 330.255 251.102C329.958 251.349 329.686 251.497 329.438 251.547C328.746 251.411 328.399 251.089 328.399 250.582C328.436 249.84 329.055 248.504 330.255 246.574C331.22 245.251 332.605 243.915 334.411 242.566C336.736 240.229 337.899 238.027 337.899 235.961C337.899 233.054 336.786 231.1 334.559 230.098C334.04 229.949 333.52 229.875 333.001 229.875H332.927C332.432 229.875 331.813 229.949 331.071 230.098C330.589 230.098 330.317 229.751 330.255 229.059C330.255 228.452 331.17 228.106 333.001 228.02H333.446ZM328.845 253.402C329.389 253.402 329.71 253.773 329.809 254.516V254.664C329.661 255.555 329.216 256 328.473 256H328.399C327.805 255.876 327.509 255.579 327.509 255.109V254.812C327.632 253.872 328.078 253.402 328.845 253.402Z" fill="black"/>
        </svg>
    </symbol>
</svg>
